<?xml version="1.0" encoding="UTF-8" standalone="no"?>
<!-- Created with Inkscape (http://www.inkscape.org/) -->

<svg
   xmlns:dc="http://purl.org/dc/elements/1.1/"
   xmlns:cc="http://creativecommons.org/ns#"
   xmlns:rdf="http://www.w3.org/1999/02/22-rdf-syntax-ns#"
   xmlns:svg="http://www.w3.org/2000/svg"
   xmlns="http://www.w3.org/2000/svg"
   xmlns:sodipodi="http://sodipodi.sourceforge.net/DTD/sodipodi-0.dtd"
   xmlns:inkscape="http://www.inkscape.org/namespaces/inkscape"
   version="1.1"
   id="svg2"
   width="600"
   height="600"
   viewBox="0 0 600 600"
   sodipodi:docname="mars.svg"
   inkscape:version="0.92.5 (2060ec1f9f, 2020-04-08)">
  <metadata
     id="metadata8">
    <rdf:RDF>
      <cc:Work
         rdf:about="">
        <dc:format>image/svg+xml</dc:format>
        <dc:type
           rdf:resource="http://purl.org/dc/dcmitype/StillImage" />
        <dc:title></dc:title>
      </cc:Work>
    </rdf:RDF>
  </metadata>
  <defs
     id="defs6" />
  <sodipodi:namedview
     pagecolor="#ffffff"
     bordercolor="#666666"
     borderopacity="1"
     objecttolerance="10"
     gridtolerance="10"
     guidetolerance="10"
     inkscape:pageopacity="0"
     inkscape:pageshadow="2"
     inkscape:window-width="1366"
     inkscape:window-height="701"
     id="namedview4"
     showgrid="false"
     inkscape:zoom="0.73"
     inkscape:cx="134.93151"
     inkscape:cy="235.61644"
     inkscape:window-x="0"
     inkscape:window-y="0"
     inkscape:window-maximized="1"
     inkscape:current-layer="svg2" />
  <g
     id="g814"
     transform="matrix(0.66176471,0,0,0.68770237,1.7647055,-67.109024)">
    <path
       style="fill:#f3f4f4;stroke-width:1.33333337"
       d="m 52.413445,422.56399 c -4.951122,-3.17146 -9.746778,-12.20558 -9.746778,-18.36111 0,-9.90411 7.297413,-18.83383 17.674612,-21.62811 C 73.641228,378.99347 88,390.22149 88,404.20288 c 0,6.13397 -4.562323,14.63575 -9.729391,18.13045 -6.045546,4.08887 -19.64455,4.21018 -25.857164,0.23066 z"
       id="path938"
       inkscape:connector-curvature="0" />
    <path
       style="fill:#eaedf0;stroke-width:1.33333337"
       d="m 54.41652,422.61856 c -12.336348,-6.51569 -14.840395,-21.97607 -5.255687,-32.44944 7.054458,-7.70852 16.66757,-9.43704 26.367923,-4.74119 7.582221,3.6705 11.137911,9.59948 11.137911,18.57207 0,16.99428 -16.877494,26.73795 -32.250147,18.61856 z"
       id="path936"
       inkscape:connector-curvature="0" />
    <path
       style="fill:#e8e9ea;stroke-width:1.33333337"
       d="m 57.966603,423.87959 c -2.218368,-0.62355 -6.067408,-3.2323 -8.553422,-5.7972 -3.726913,-3.8452 -4.624181,-5.91948 -5.113624,-11.82151 -0.718104,-8.6594 1.606398,-13.86129 8.566116,-19.16973 4.032355,-3.07563 6.196316,-3.71338 12.600059,-3.71338 8.697995,0 13.044347,2.39115 18.318935,10.07816 2.601124,3.79079 3.029062,5.81522 2.581489,12.2121 -0.437003,6.2458 -1.262609,8.43094 -4.451335,11.7814 -2.153152,2.26237 -4.933914,4.66632 -6.179473,5.34213 -3.309875,1.79587 -13.114608,2.39623 -17.768745,1.08803 z"
       id="path934"
       inkscape:connector-curvature="0" />
    <path
       style="fill:#dde1e4;stroke-width:1.33333337"
       d="m 53.197177,420.97343 c -11.987238,-8.008 -12.147262,-25.73064 -0.30214,-33.46206 7.150836,-4.66742 13.347776,-5.5262 20.172412,-2.79552 14.63586,5.85611 18.143326,23.05376 6.978822,34.21827 C 75.224665,423.75572 74.564435,424 66.35404,424 c -6.748816,0 -9.612423,-0.65873 -13.156863,-3.02657 z"
       id="path932"
       inkscape:connector-curvature="0" />
    <path
       style="fill:#e1e2dd;stroke-width:1.33333337"
       d="m 55.220248,422.10479 c -12.399636,-5.39882 -14.945715,-22.21999 -4.847919,-32.02875 6.788,-6.59371 13.235038,-8.19696 21.681031,-5.39165 15.418749,5.12129 19.493175,22.74946 7.930591,34.31205 -4.664855,4.66485 -5.533154,5.00003 -12.827088,4.95137 -4.302942,-0.0287 -9.674418,-0.85806 -11.936615,-1.84302 z"
       id="path930"
       inkscape:connector-curvature="0" />
    <path
       style="fill:#dde0dd;stroke-width:1.33333337"
       d="m 54.761447,421.6646 c -8.035914,-4.09761 -12.401266,-13.61619 -10.223651,-22.29251 1.402728,-5.5889 9.799393,-13.84725 15.69266,-15.43414 12.392212,-3.33688 26.502997,7.1349 26.406928,19.59689 -0.04772,6.18971 -4.583052,14.46873 -9.637323,17.59244 -5.773025,3.56793 -15.819192,3.81065 -22.238614,0.53732 z"
       id="path928"
       inkscape:connector-curvature="0" />
    <path
       style="fill:#d6dce3;stroke-width:1.33333337"
       d="m 54.68676,421.6646 c -5.247376,-2.63269 -10.631477,-11.06739 -10.664827,-16.70743 -0.05251,-8.87918 7.438908,-18.24517 16.62142,-20.78058 14.394976,-3.97464 28.797571,10.28125 24.795314,24.54276 -1.680722,5.98902 -3.155288,8.09552 -8.618479,12.31197 -4.819141,3.71937 -15.380075,4.02155 -22.133428,0.63328 z"
       id="path926"
       inkscape:connector-curvature="0" />
    <path
       style="fill:#d7d9d8;stroke-width:1.33333337"
       d="M 55.078223,421.40427 C 49.041409,418.66352 44,411.05137 44,404.67696 c 0,-12.91547 14.296916,-23.90539 26.275243,-20.19755 8.197817,2.53759 10.631841,4.46482 13.735038,10.87516 2.231047,4.60872 2.713443,7.25736 2.007551,11.0226 -2.834493,15.11923 -16.315128,21.66666 -30.939609,15.0271 z"
       id="path924"
       inkscape:connector-curvature="0" />
    <path
       style="fill:#ccd2d6;stroke-width:1.33333337"
       d="M 55.067707,421.30244 C 49.236444,418.33685 44,410.24656 44,404.20288 c 0,-8.38507 8.214915,-18.03863 16.705916,-19.63155 20.515176,-3.84866 33.416591,19.26172 18.872277,33.80603 -6.181748,6.18175 -15.840369,7.3344 -24.510486,2.92508 z"
       id="path922"
       inkscape:connector-curvature="0" />
    <path
       style="fill:#d3d4cc;stroke-width:1.33333337"
       d="m 64,422.65348 c -11.052611,-1.10895 -15.653643,-4.46981 -18.572857,-13.56669 -2.296023,-7.15488 0.03695,-14.56804 6.177581,-19.62968 5.779903,-4.76428 10.49136,-6.01316 17.938373,-4.755 15.505832,2.61969 21.553398,21.84921 10.468286,33.28614 C 74.918285,423.243 73.626624,423.61935 64,422.65348 Z"
       id="path920"
       inkscape:connector-curvature="0" />
    <path
       style="fill:#c7c9c8;stroke-width:1.33333337"
       d="m 54,420.21109 c -5.151541,-3.14965 -6.619645,-5.07489 -8.632344,-11.32029 -2.22312,-6.89832 0.970781,-15.48896 7.651565,-20.5804 3.933287,-2.99757 6.121384,-3.63607 12.338862,-3.60053 4.926785,0.0281 8.812921,0.86564 11.16347,2.40577 11.150526,7.30611 11.845598,24.49135 1.325275,32.76663 -4.721409,3.71386 -18.010589,3.8971 -23.846828,0.32882 z"
       id="path918"
       inkscape:connector-curvature="0" />
    <path
       style="fill:#bbc3c9;stroke-width:1.33333337"
       d="m 53.731399,420.05397 c -8.178128,-4.98649 -10.810914,-16.26322 -5.924284,-25.37488 2.738422,-5.10608 11.873822,-10.69664 17.402597,-10.64981 5.810729,0.0492 14.548853,4.84337 17.424424,9.55987 5.018207,8.23082 2.614801,20.77444 -5.022444,26.21264 -5.403685,3.84777 -17.769187,3.97836 -23.880293,0.25218 z"
       id="path916"
       inkscape:connector-curvature="0" />
    <path
       style="fill:#c5c5ba;stroke-width:1.33333337"
       d="m 57.715211,421.73205 c -4.757592,-0.92117 -10.752558,-7.46508 -11.760382,-12.83725 -1.504845,-8.02151 0.256024,-13.50604 6.003319,-18.69837 6.702835,-6.0556 12.169627,-7.09198 20.700879,-3.9244 11.233346,4.17085 15.611668,14.78353 10.825158,26.23925 -3.600529,8.61728 -12.478586,11.79407 -25.768974,9.22077 z"
       id="path914"
       inkscape:connector-curvature="0" />
    <path
       style="fill:#c1bfb6;stroke-width:1.33333337"
       d="m 58,421.68965 c -12.757304,-3.19418 -16.819496,-20.56908 -7.143091,-30.5526 6.333002,-6.534 12.404191,-8.03965 20.959658,-5.19798 14.861666,4.93625 18.049565,22.13013 6.05563,32.66096 -3.852457,3.38249 -5.689324,4.04061 -10.918592,3.91197 C 63.495789,422.42693 59.466667,422.05687 58,421.68965 Z"
       id="path912"
       inkscape:connector-curvature="0" />
    <path
       style="fill:#b2bbc3;stroke-width:1.33333337"
       d="m 58,421.68965 c -12.750721,-3.19253 -16.819601,-20.56897 -7.152053,-30.54336 8.50754,-8.77754 21.271736,-8.58444 29.196812,0.44172 7.373852,8.39836 6.893122,17.78783 -1.331822,26.01278 -4.551662,4.55166 -5.72467,5.05018 -11.556074,4.91121 C 63.587255,422.42693 59.466667,422.05687 58,421.68965 Z"
       id="path910"
       inkscape:connector-curvature="0" />
    <path
       style="fill:#b5b7b5;stroke-width:1.33333337"
       d="m 57.949917,421.24836 c -2.227545,-0.6478 -5.827545,-3.03308 -8,-5.30064 C 46.487715,412.33396 46,410.85705 46,403.98651 c 0,-7.13302 0.414635,-8.26619 4.607524,-12.59215 8.622605,-8.89628 21.503133,-8.84279 29.374308,0.122 7.438635,8.47213 6.983307,17.83224 -1.268895,26.08444 -4.386384,4.38639 -5.846997,5.04975 -10.889408,4.94563 -3.202941,-0.0661 -7.646066,-0.65027 -9.873612,-1.29806 z"
       id="path908"
       inkscape:connector-curvature="0" />
    <path
       style="fill:#adb4b9;stroke-width:1.33333337"
       d="m 58.139096,421.16512 c -5.50814,-1.48141 -11.296021,-7.53556 -12.295008,-12.86061 -2.591307,-13.81286 10.806279,-26.48704 24.114505,-22.81246 15.169412,4.18847 19.859315,21.82438 8.65766,32.55624 -3.28224,3.14459 -5.33321,3.94447 -10.354598,4.03826 -3.44391,0.0643 -7.999062,-0.35032 -10.122559,-0.92143 z"
       id="path906"
       inkscape:connector-curvature="0" />
    <path
       style="fill:#b5b4a9;stroke-width:1.33333337"
       d="m 62.085135,421.25153 c -8.156411,-1.36505 -12.869694,-4.76756 -15.243355,-11.00414 -2.562019,-6.73148 -0.951384,-13.73779 4.384787,-19.07395 5.17898,-5.17899 9.40447,-6.44815 17.45084,-5.24152 16.449672,2.46677 21.864876,21.54361 9.257602,32.61295 -4.959553,4.35454 -5.476268,4.44278 -15.849874,2.70666 z"
       id="path904"
       inkscape:connector-curvature="0" />
    <path
       style="fill:#f7ad60;stroke-width:1.33333337"
       d="m 55.100636,419.38783 c -11.111437,-4.83324 -12.722627,-21.08686 -2.908871,-29.34459 5.119547,-4.30781 8.964552,-5.23919 16.786595,-4.06619 7.247527,1.08683 14.128048,7.22166 15.436403,13.76343 1.130402,5.65201 -1.392426,13.44231 -5.771231,17.82112 -3.294656,3.29465 -4.754456,3.76513 -11.540968,3.71955 -4.273077,-0.0287 -9.673944,-0.88071 -12.001928,-1.89332 z"
       id="path902"
       inkscape:connector-curvature="0" />
    <path
       style="fill:#f6a95c;stroke-width:1.33333337"
       d="m 55.100636,419.38783 c -11.111437,-4.83324 -12.722627,-21.08686 -2.908871,-29.34459 5.119547,-4.30781 8.964552,-5.23919 16.786595,-4.06619 7.247527,1.08683 14.128048,7.22166 15.436403,13.76343 1.130402,5.65201 -1.392426,13.44231 -5.771231,17.82112 -3.294656,3.29465 -4.754456,3.76513 -11.540968,3.71955 -4.273077,-0.0287 -9.673944,-0.88071 -12.001928,-1.89332 z M 75.750811,403 c -0.542147,-2.84451 -6.417478,-4.04837 -6.417478,-1.31496 0,2.55037 1.300066,3.64829 4.319988,3.64829 1.70168,0 2.395172,-0.77146 2.09749,-2.33333 z"
       id="path900"
       inkscape:connector-curvature="0" />
    <path
       style="fill:#a5a8a5;stroke-width:1.33333337"
       d="m 55.100636,419.38783 c -11.111437,-4.83324 -12.722627,-21.08686 -2.908871,-29.34459 5.119547,-4.30781 8.964552,-5.23919 16.786595,-4.06619 7.247527,1.08683 14.128048,7.22166 15.436403,13.76343 1.130402,5.65201 -1.392426,13.44231 -5.771231,17.82112 -3.294656,3.29465 -4.754456,3.76513 -11.540968,3.71955 -4.273077,-0.0287 -9.673944,-0.88071 -12.001928,-1.89332 z m 20.982613,-19.23228 c -1.809064,-3.38027 -9.067824,-3.94916 -10.274262,-0.80524 -1.675752,4.36694 6.255548,8.50661 9.987841,5.21306 1.391537,-1.22794 1.456141,-2.22217 0.286421,-4.40782 z"
       id="path898"
       inkscape:connector-curvature="0" />
    <path
       style="fill:#ada996;stroke-width:1.33333337"
       d="m 55.100636,419.38783 c -8.098203,-3.52255 -11.305541,-12.30864 -7.822519,-21.4288 3.863276,-10.11586 13.013096,-14.38396 24.150775,-11.2656 C 79.640189,388.99244 84,394.71437 84,403.19207 c 0,7.0736 -2.558111,12.98012 -6.955727,16.06033 -3.713877,2.60129 -16.098958,2.67773 -21.943637,0.13543 z m 20.982613,-19.23228 c -1.809064,-3.38027 -9.067824,-3.94916 -10.274262,-0.80524 -1.675752,4.36694 6.255548,8.50661 9.987841,5.21306 1.391537,-1.22794 1.456141,-2.22217 0.286421,-4.40782 z"
       id="path896"
       inkscape:connector-curvature="0" />
    <path
       style="fill:#eaa35c;stroke-width:1.33333337"
       d="m 55.100636,419.38783 c -8.098203,-3.52255 -11.305541,-12.30864 -7.822519,-21.4288 4.037263,-10.57143 14.328303,-14.92051 25.347707,-10.71216 13.302969,5.08045 15.431852,22.22141 3.887671,31.30206 -4.202983,3.30607 -14.787583,3.72075 -21.412859,0.8389 z m 20.982613,-19.23228 c -1.809064,-3.38027 -9.067824,-3.94916 -10.274262,-0.80524 -1.675752,4.36694 6.255548,8.50661 9.987841,5.21306 1.391537,-1.22794 1.456141,-2.22217 0.286421,-4.40782 z"
       id="path894"
       inkscape:connector-curvature="0" />
    <path
       style="fill:#9ba2a7;stroke-width:1.33333337"
       d="m 55.100636,419.38783 c -8.098203,-3.52255 -11.305541,-12.30864 -7.822519,-21.4288 4.037263,-10.57143 14.328303,-14.92051 25.347707,-10.71216 13.302969,5.08045 15.431852,22.22141 3.887671,31.30206 -4.202983,3.30607 -14.787583,3.72075 -21.412859,0.8389 z M 77.084477,402.4678 c -0.530818,-5.33456 -3.710913,-7.46775 -8.571833,-5.74993 -1.99544,0.70517 -3.864601,1.99462 -4.153692,2.86546 -0.895981,2.69899 4.711152,7.08334 9.058859,7.08334 3.780858,0 4.05342,-0.31212 3.666666,-4.19887 z"
       id="path892"
       inkscape:connector-curvature="0" />
    <path
       style="fill:#dea05d;stroke-width:1.33333337"
       d="m 56.914756,419.97791 c -5.403341,-1.62192 -7.158369,-3.44767 -9.692399,-10.08294 -2.098926,-5.49596 -2.102306,-6.28513 -0.04993,-11.65918 4.151549,-10.87067 15.623613,-15.26978 27.149125,-10.41066 11.682748,4.92542 12.921188,22.28419 2.191952,30.7238 -3.770502,2.96588 -12.385956,3.59406 -19.598738,1.42898 z M 77.084477,402.4678 c -0.530818,-5.33456 -3.710913,-7.46775 -8.571833,-5.74993 -1.99544,0.70517 -3.864601,1.99462 -4.153692,2.86546 -0.895981,2.69899 4.711152,7.08334 9.058859,7.08334 3.780858,0 4.05342,-0.31212 3.666666,-4.19887 z"
       id="path890"
       inkscape:connector-curvature="0" />
    <path
       style="fill:#e59a56;stroke-width:1.33333337"
       d="m 56.914756,419.97791 c -5.403341,-1.62192 -7.158369,-3.44767 -9.692399,-10.08294 -2.098926,-5.49596 -2.102306,-6.28513 -0.04993,-11.65918 4.151549,-10.87067 15.623613,-15.26978 27.149125,-10.41066 11.682748,4.92542 12.921188,22.28419 2.191952,30.7238 -3.770502,2.96588 -12.385956,3.59406 -19.598738,1.42898 z m 21.025627,-14.45674 c 0.887645,-2.79673 -0.36228,-7.03026 -2.509794,-8.50076 -2.279337,-1.56074 -6.706873,-1.17692 -9.43501,0.81795 -2.37516,1.73676 -2.391059,2.02613 -0.287684,5.23629 1.966701,3.00156 4.24354,4.09599 9.868921,4.74378 0.867249,0.0999 1.930855,-0.93391 2.363567,-2.29726 z"
       id="path888"
       inkscape:connector-curvature="0" />
    <path
       style="fill:#949da3;stroke-width:1.33333337"
       d="m 56.914756,419.97791 c -5.403341,-1.62192 -7.158369,-3.44767 -9.692399,-10.08294 -2.098926,-5.49596 -2.102306,-6.28513 -0.04993,-11.65918 4.151549,-10.87067 15.623613,-15.26978 27.149125,-10.41066 11.682748,4.92542 12.921188,22.28419 2.191952,30.7238 -3.770502,2.96588 -12.385956,3.59406 -19.598738,1.42898 z m 21.078433,-14.62312 c 1.218516,-3.8392 -2.137562,-9.94356 -5.749433,-10.45763 -3.584832,-0.51021 -9.577089,3.02297 -9.577089,5.64689 0,2.84283 6.828676,6.70475 12.910149,7.30128 0.867249,0.0851 1.954617,-1.03568 2.416373,-2.49054 z"
       id="path886"
       inkscape:connector-curvature="0" />
    <path
       style="fill:#a39c88;stroke-width:1.33333337"
       d="m 58.159069,419.95411 c -5.248308,-1.57142 -9.78203,-6.10496 -11.593149,-11.59271 -3.491835,-10.58036 6.535948,-22.57816 18.484379,-22.11573 8.223268,0.31825 13.128488,2.65017 16.271244,7.73525 7.164982,11.59319 -0.918298,27.5076 -13.834688,27.23781 -3.01777,-0.0631 -7.215274,-0.63212 -9.327786,-1.26462 z m 19.83412,-14.59932 c 1.218516,-3.8392 -2.137562,-9.94356 -5.749433,-10.45763 -3.584832,-0.51021 -9.577089,3.02297 -9.577089,5.64689 0,2.84283 6.828676,6.70475 12.910149,7.30128 0.867249,0.0851 1.954617,-1.03568 2.416373,-2.49054 z"
       id="path884"
       inkscape:connector-curvature="0" />
    <path
       style="fill:#d99657;stroke-width:1.33333337"
       d="m 58.159069,419.95411 c -5.248308,-1.57142 -9.78203,-6.10496 -11.593149,-11.59271 -2.13372,-6.46523 1.141367,-14.59289 7.667465,-19.02807 3.829831,-2.60277 6.350523,-3.27012 11.50117,-3.04493 7.629032,0.33355 12.000058,2.78575 15.657449,8.78404 3.16894,5.19721 3.308988,10.38065 0.443613,16.41897 -4.137513,8.71918 -12.653654,11.76308 -23.676548,8.4627 z m 19.83412,-14.59932 c 1.218516,-3.8392 -2.137562,-9.94356 -5.749433,-10.45763 -3.584832,-0.51021 -9.577089,3.02297 -9.577089,5.64689 0,2.84283 6.828676,6.70475 12.910149,7.30128 0.867249,0.0851 1.954617,-1.03568 2.416373,-2.49054 z"
       id="path882"
       inkscape:connector-curvature="0" />
    <path
       style="fill:#959898;stroke-width:1.33333337"
       d="m 58.159069,419.95411 c -5.248308,-1.57142 -9.78203,-6.10496 -11.593149,-11.59271 -2.13372,-6.46523 1.141367,-14.59289 7.667465,-19.02807 3.829831,-2.60277 6.350523,-3.27012 11.50117,-3.04493 7.629032,0.33355 12.000058,2.78575 15.657449,8.78404 3.16894,5.19721 3.308988,10.38065 0.443613,16.41897 -4.137513,8.71918 -12.653654,11.76308 -23.676548,8.4627 z m 19.804943,-14.50739 c 1.139277,-3.58955 -0.529671,-9.30155 -3.117383,-10.66928 -2.855304,-1.50917 -10.81724,1.1692 -12.718768,4.27855 -1.191473,1.94828 -0.845894,2.8602 1.872139,4.94028 5.649372,4.3234 12.815912,5.0678 13.964012,1.45045 z"
       id="path880"
       inkscape:connector-curvature="0" />
    <path
       style="fill:#ca945a;stroke-width:1.33333337"
       d="m 58.685852,419.96767 c -2.561112,-0.60216 -6.36926,-3.01971 -8.482821,-5.38519 -3.446366,-3.85716 -3.775,-5.02012 -3.240375,-11.46699 1.030959,-12.43202 9.74916,-18.57588 22.720072,-16.01121 14.52176,2.87131 18.952447,18.83832 8.208721,29.58205 -4.951653,4.95166 -9.092426,5.65911 -19.205597,3.28134 z m 19.27816,-14.52095 c 1.139277,-3.58955 -0.529671,-9.30155 -3.117383,-10.66928 -2.855304,-1.50917 -10.81724,1.1692 -12.718768,4.27855 -1.191473,1.94828 -0.845894,2.8602 1.872139,4.94028 5.649372,4.3234 12.815912,5.0678 13.964012,1.45045 z"
       id="path878"
       inkscape:connector-curvature="0" />
    <path
       style="fill:#8b9497;stroke-width:1.33333337"
       d="m 58.685852,419.96767 c -2.561112,-0.60216 -6.36926,-3.01971 -8.482821,-5.38519 -3.446366,-3.85716 -3.775,-5.02012 -3.240375,-11.46699 1.030959,-12.43202 9.74916,-18.57588 22.720072,-16.01121 14.52176,2.87131 18.952447,18.83832 8.208721,29.58205 -4.951653,4.95166 -9.092426,5.65911 -19.205597,3.28134 z m 19.980815,-16.55874 c 0,-4.49536 -0.671259,-6.39456 -2.782876,-7.87358 -4.770727,-3.34155 -15.964623,1.52289 -14.183768,6.16372 0.852614,2.22188 11.223512,7.63168 14.63331,7.63321 1.87229,8.4e-4 2.333334,-1.16955 2.333334,-5.92335 z"
       id="path876"
       inkscape:connector-curvature="0" />
    <path
       style="fill:#999487;stroke-width:1.33333337"
       d="m 58.347555,419.50405 c -7.440292,-2.3126 -10.62726,-6.19908 -11.255596,-13.72612 -0.646316,-7.74242 1.304234,-11.92424 7.513757,-16.10884 3.976196,-2.67956 5.611964,-2.9711 12.647241,-2.25417 6.605134,0.67309 8.744695,1.53008 11.719059,4.69397 6.937004,7.37903 6.514799,16.98207 -1.080567,24.57744 -5.110186,5.11019 -9.931817,5.80534 -19.543894,2.81772 z m 20.319112,-16.09512 c 0,-4.49536 -0.671259,-6.39456 -2.782876,-7.87358 -4.770727,-3.34155 -15.964623,1.52289 -14.183768,6.16372 0.852614,2.22188 11.223512,7.63168 14.63331,7.63321 1.87229,8.4e-4 2.333334,-1.16955 2.333334,-5.92335 z"
       id="path874"
       inkscape:connector-curvature="0" />
    <path
       style="fill:#d38d54;stroke-width:1.33333337"
       d="m 56.499032,419.08073 c -4.986163,-0.97832 -8.836572,-6.44724 -9.413584,-13.37056 -0.6401,-7.6803 1.329709,-11.86925 7.553749,-16.06364 3.97109,-2.67612 5.609852,-2.98144 11.980576,-2.23216 4.059124,0.4774 8.71774,1.71012 10.35248,2.73938 8.016132,5.04705 8.905924,18.1263 1.754003,25.78246 -3.448697,3.69184 -4.509913,4.04718 -11.594536,3.88222 -4.289112,-0.0999 -9.073823,-0.43183 -10.632688,-0.7377 z m 22.167635,-15.6718 c 0,-4.49536 -0.671259,-6.39456 -2.782876,-7.87358 -4.770727,-3.34155 -15.964623,1.52289 -14.183768,6.16372 0.852614,2.22188 11.223512,7.63168 14.63331,7.63321 1.87229,8.4e-4 2.333334,-1.16955 2.333334,-5.92335 z"
       id="path872"
       inkscape:connector-curvature="0" />
    <path
       style="fill:#a2977b;stroke-width:1.33333337"
       d="m 56.499032,419.08073 c -4.986163,-0.97832 -8.836572,-6.44724 -9.413584,-13.37056 -0.6401,-7.6803 1.329709,-11.86925 7.553749,-16.06364 3.97109,-2.67612 5.609852,-2.98144 11.980576,-2.23216 4.059124,0.4774 8.71774,1.71012 10.35248,2.73938 8.016132,5.04705 8.905924,18.1263 1.754003,25.78246 -3.448697,3.69184 -4.509913,4.04718 -11.594536,3.88222 -4.289112,-0.0999 -9.073823,-0.43183 -10.632688,-0.7377 z m 22.167635,-15.65216 c 0,-3.59018 -0.8213,-6.72606 -2.095239,-8 -4.160715,-4.16072 -14.688265,-1.41684 -16.096859,4.19544 -0.935045,3.72552 -1.493181,3.17538 6.858764,6.76058 10.123442,4.34565 11.333334,4.03008 11.333334,-2.95602 z"
       id="path870"
       inkscape:connector-curvature="0" />
    <path
       style="fill:#938c85;stroke-width:1.33333337"
       d="m 56.499032,419.08073 c -4.986163,-0.97832 -8.836572,-6.44724 -9.413584,-13.37056 -0.6401,-7.6803 1.329709,-11.86925 7.553749,-16.06364 3.984584,-2.68521 5.588204,-2.98052 11.980576,-2.20622 9.273039,1.12322 11.137599,2.107 14.594391,7.7002 3.347788,5.41684 3.498751,8.91424 0.629872,14.59237 -4.310731,8.53187 -6.930663,10.28449 -15.076455,10.08555 -4.088836,-0.0999 -8.709684,-0.43183 -10.268549,-0.7377 z m 22.167635,-15.65216 c 0,-3.59018 -0.8213,-6.72606 -2.095239,-8 -4.160715,-4.16072 -14.688265,-1.41684 -16.096859,4.19544 -0.935045,3.72552 -1.493181,3.17538 6.858764,6.76058 10.123442,4.34565 11.333334,4.03008 11.333334,-2.95602 z"
       id="path868"
       inkscape:connector-curvature="0" />
    <path
       style="fill:#c58954;stroke-width:1.33333337"
       d="m 57.164093,419.06083 c -1.926414,-0.29679 -4.926414,-2.05667 -6.666666,-3.91084 -4.229459,-4.50632 -4.49792,-17.39616 -0.455352,-21.86315 3.324314,-3.67332 8.987117,-6.62017 12.721638,-6.62017 2.42317,0 2.625068,0.32662 1.236287,2 -1.998069,2.40752 -0.922448,2.50617 4.792727,0.43953 5.485624,-1.98363 9.7714,0.50823 13.161548,7.65243 1.971589,4.15482 2.106168,5.78181 0.830453,10.03977 -0.837339,2.79479 -3.059785,6.90847 -4.938772,9.14151 -3.05296,3.62824 -4.148287,4.03884 -10.297815,3.86032 -3.78481,-0.10987 -8.457632,-0.44262 -10.384048,-0.7394 z m 21.502574,-15.63226 c 0,-3.59018 -0.8213,-6.72606 -2.095239,-8 -4.160715,-4.16072 -14.688265,-1.41684 -16.096859,4.19544 -0.935045,3.72552 -1.493181,3.17538 6.858764,6.76058 10.123442,4.34565 11.333334,4.03008 11.333334,-2.95602 z"
       id="path866"
       inkscape:connector-curvature="0" />
    <path
       style="fill:#868887;stroke-width:1.33333337"
       d="m 57.164093,419.06083 c -1.926414,-0.29679 -4.926414,-2.05667 -6.666666,-3.91084 -4.229459,-4.50632 -4.49792,-17.39616 -0.455352,-21.86315 3.324314,-3.67332 8.987117,-6.62017 12.721638,-6.62017 2.42317,0 2.625068,0.32662 1.236287,2 -1.998069,2.40752 -0.922448,2.50617 4.792727,0.43953 5.485624,-1.98363 9.7714,0.50823 13.161548,7.65243 1.971589,4.15482 2.106168,5.78181 0.830453,10.03977 -0.837339,2.79479 -3.059785,6.90847 -4.938772,9.14151 -3.05296,3.62824 -4.148287,4.03884 -10.297815,3.86032 -3.78481,-0.10987 -8.457632,-0.44262 -10.384048,-0.7394 z M 78.666667,403.10499 C 78.666667,396.32796 75.971233,392 71.750525,392 c -4.325265,0 -11.47099,3.653 -13.100057,6.69693 -2.042372,3.81622 -0.570028,5.25319 8.382687,8.18136 11.0491,3.61383 11.633512,3.42427 11.633512,-3.7733 z"
       id="path864"
       inkscape:connector-curvature="0" />
    <path
       style="fill:#b68657;stroke-width:1.33333337"
       d="m 56.282549,418.49513 c -12.656748,-3.65016 -12.364193,-24.01774 0.432638,-30.12012 4.97758,-2.37365 7.306132,-1.61384 4.695264,1.53207 -1.421447,1.71273 -1.052603,1.79031 2.809998,0.59095 2.44542,-0.75931 5.495156,-1.7017 6.777192,-2.09419 3.396092,-1.03971 8.257862,2.66755 10.956634,8.35479 1.971589,4.15482 2.106168,5.78181 0.830453,10.03977 -0.837339,2.79479 -3.059785,6.90847 -4.938772,9.14151 -3.030047,3.60101 -4.194441,4.04649 -10.297815,3.93984 -3.78481,-0.0661 -8.854328,-0.68922 -11.265592,-1.38462 z M 78.666667,403.10499 C 78.666667,396.32796 75.971233,392 71.750525,392 c -4.325265,0 -11.47099,3.653 -13.100057,6.69693 -2.042372,3.81622 -0.570028,5.25319 8.382687,8.18136 11.0491,3.61383 11.633512,3.42427 11.633512,-3.7733 z"
       id="path862"
       inkscape:connector-curvature="0" />
    <path
       style="fill:#948973;stroke-width:1.33333337"
       d="m 56.282549,418.49513 c -12.656748,-3.65016 -12.364193,-24.01774 0.432638,-30.12012 4.97758,-2.37365 7.306132,-1.61384 4.695264,1.53207 -1.421447,1.71273 -1.052603,1.79031 2.809998,0.59095 2.44542,-0.75931 5.495156,-1.7017 6.777192,-2.09419 3.396092,-1.03971 8.257862,2.66755 10.956634,8.35479 1.971589,4.15482 2.106168,5.78181 0.830453,10.03977 -0.837339,2.79479 -3.059785,6.90847 -4.938772,9.14151 -3.030047,3.60101 -4.194441,4.04649 -10.297815,3.93984 -3.78481,-0.0661 -8.854328,-0.68922 -11.265592,-1.38462 z M 71.333333,412 c -0.453225,-0.73333 -1.653225,-1.33333 -2.666666,-1.33333 -1.013442,0 -2.213442,0.6 -2.666667,1.33333 -0.469212,0.7592 0.679051,1.33333 2.666667,1.33333 1.987616,0 3.135878,-0.57413 2.666666,-1.33333 z m 7.92381,-4.8378 c 0.981437,-3.91035 -0.186806,-10.94553 -2.241032,-13.49553 -1.683878,-2.09027 -9.576312,-2.16694 -13.437099,-0.13054 -1.601791,0.84488 -4.268091,2.982 -5.925112,4.74914 -2.620425,2.79458 -2.763055,3.4627 -1.095239,5.13052 1.054642,1.05464 3.38692,1.91753 5.182842,1.91753 1.795921,0 3.98235,0.86397 4.858732,1.91996 1.495177,1.80157 4.48159,2.80813 9.588554,3.2318 1.330346,0.1104 2.533755,-1.19288 3.068354,-3.32289 z"
       id="path860"
       inkscape:connector-curvature="0" />
    <path
       style="fill:#a38565;stroke-width:1.33333337"
       d="m 56.282549,418.49513 c -12.656748,-3.65016 -12.364193,-24.01774 0.432638,-30.12012 4.981969,-2.37574 7.305556,-1.61314 4.689453,1.53907 -1.361449,1.64045 -1.223043,1.8872 0.81,1.44409 1.348615,-0.29393 4.387584,-1.29586 6.753267,-2.2265 4.01102,-1.57791 4.566761,-1.43768 8.236454,2.0781 6.359203,6.0925 7.481342,10.23892 4.724514,17.45758 -3.151883,8.25308 -7.344019,11.36413 -15.108687,11.2124 -3.384436,-0.0661 -8.126375,-0.68922 -10.537639,-1.38462 z M 71.333333,412 c -0.453225,-0.73333 -1.653225,-1.33333 -2.666666,-1.33333 -1.013442,0 -2.213442,0.6 -2.666667,1.33333 -0.469212,0.7592 0.679051,1.33333 2.666667,1.33333 1.987616,0 3.135878,-0.57413 2.666666,-1.33333 z m 7.92381,-4.8378 c 0.981437,-3.91035 -0.186806,-10.94553 -2.241032,-13.49553 -1.683878,-2.09027 -9.576312,-2.16694 -13.437099,-0.13054 -1.601791,0.84488 -4.268091,2.982 -5.925112,4.74914 -2.620425,2.79458 -2.763055,3.4627 -1.095239,5.13052 1.054642,1.05464 3.38692,1.91753 5.182842,1.91753 1.795921,0 3.98235,0.86397 4.858732,1.91996 1.495177,1.80157 4.48159,2.80813 9.588554,3.2318 1.330346,0.1104 2.533755,-1.19288 3.068354,-3.32289 z"
       id="path858"
       inkscape:connector-curvature="0" />
    <path
       style="fill:#998867;stroke-width:1.33333337"
       d="m 56.282549,418.49513 c -12.656748,-3.65016 -12.364193,-24.01774 0.432638,-30.12012 5.158921,-2.46012 7.265057,-1.59 4.474814,1.84871 -1.228516,1.51403 -1.292797,1.9494 -0.190001,1.28687 3.214047,-1.93094 1.631791,1.94672 -2.404217,5.89204 -3.596262,3.51545 -3.840546,4.20976 -2.095239,5.95506 1.086605,1.0866 3.445037,1.97564 5.240959,1.97564 1.795921,0 3.952234,0.8277 4.791806,1.83932 0.839572,1.01162 3.163039,2.1696 5.163259,2.57328 2.000221,0.4037 4.644776,1.12408 5.876789,1.60087 1.971818,0.76309 2.191719,-0.1028 1.836578,-7.23195 -0.482188,-9.67946 -2.148407,-12.06406 -8.573195,-12.26952 -2.660207,-0.0851 -3.779395,-0.43048 -2.487083,-0.76757 1.292312,-0.33711 2.006902,-1.16751 1.587978,-1.84533 C 69.518711,388.55459 70.349209,388 71.783188,388 c 3.026835,0 10.494232,7.98488 11.604547,12.40872 0.997682,3.97508 -3.656503,14.69441 -7.570383,17.43581 -3.393113,2.37663 -12.498403,2.67988 -19.534803,0.6506 z M 71.333333,412 c -0.453225,-0.73333 -1.653225,-1.33333 -2.666666,-1.33333 -1.013442,0 -2.213442,0.6 -2.666667,1.33333 -0.469212,0.7592 0.679051,1.33333 2.666667,1.33333 1.987616,0 3.135878,-0.57413 2.666666,-1.33333 z"
       id="path856"
       inkscape:connector-curvature="0" />
    <path
       style="fill:#8a8777;stroke-width:1.33333337"
       d="m 56.282549,418.49513 c -12.656748,-3.65016 -12.364193,-24.01774 0.432638,-30.12012 4.940886,-2.35614 7.310938,-1.61962 4.743402,1.47407 -1.063674,1.28164 -1.1334,2.19452 -0.211153,2.76449 0.806568,0.4985 -0.300576,2.4908 -2.672807,4.80974 -3.577574,3.49718 -3.819392,4.18908 -2.074085,5.93438 1.086605,1.0866 3.445037,1.97564 5.240959,1.97564 1.795921,0 3.960156,0.83724 4.809409,1.86052 0.849253,1.0233 3.601673,2.24654 6.116487,2.71832 5.94867,1.11598 6.553733,2.35666 3.217661,6.59778 -2.296275,2.91924 -3.765287,3.47038 -8.981833,3.3698 -3.430108,-0.0661 -8.209414,-0.68922 -10.620678,-1.38462 z M 71.333333,412 c -0.453225,-0.73333 -1.653225,-1.33333 -2.666666,-1.33333 -1.013442,0 -2.213442,0.6 -2.666667,1.33333 -0.469212,0.7592 0.679051,1.33333 2.666667,1.33333 1.987616,0 3.135878,-0.57413 2.666666,-1.33333 z m 7.904515,-9.24439 c -0.117467,-8.08972 -2.135053,-10.7099 -8.401108,-10.91028 -2.660207,-0.0851 -3.779395,-0.43048 -2.487083,-0.76757 1.292312,-0.33711 2.006902,-1.16751 1.587978,-1.84533 C 69.518711,388.55459 70.367683,388 71.824239,388 c 2.930706,0 10.516425,8.37125 11.667585,12.87581 0.731555,2.86262 -1.389468,8.45836 -3.205403,8.45659 -0.524198,-5.1e-4 -0.996056,-2.96007 -1.048573,-6.57679 z"
       id="path854"
       inkscape:connector-curvature="0" />
    <path
       style="fill:#ab8357;stroke-width:1.33333337"
       d="m 62.555556,419.45865 c -0.305556,-0.29774 -2.468781,-0.83961 -4.807168,-1.20414 -5.598221,-0.87271 -6.702243,-1.65311 -9.21626,-6.51468 -4.241367,-8.2019 0.196721,-20.17574 8.798767,-23.73882 4.589912,-1.90121 6.521557,-1.03636 4.127694,1.84807 -1.063674,1.28164 -1.1334,2.19452 -0.211153,2.76449 0.806568,0.4985 -0.300576,2.4908 -2.672807,4.80974 -3.577574,3.49718 -3.819392,4.18908 -2.074085,5.93438 1.086605,1.0866 3.445037,1.97564 5.240959,1.97564 1.795921,0 3.960156,0.83724 4.809409,1.86052 0.849253,1.0233 3.601673,2.24654 6.116487,2.71832 5.94867,1.11598 6.553733,2.35666 3.217661,6.59778 C 73.793349,419.16913 71.946029,420 68.125449,420 c -2.757886,0 -5.264338,-0.24361 -5.569893,-0.54135 z M 71.333333,412 c -0.453225,-0.73333 -1.653225,-1.33333 -2.666666,-1.33333 -1.013442,0 -2.213442,0.6 -2.666667,1.33333 -0.469212,0.7592 0.679051,1.33333 2.666667,1.33333 1.987616,0 3.135878,-0.57413 2.666666,-1.33333 z m 7.904515,-9.24449 C 79.120301,394.66076 77.098911,392.04012 70.83674,391.86388 L 66,391.72776 l 4.545848,-1.45104 c 4.299171,-1.37231 4.75428,-1.20212 8.386903,3.13612 3.048857,3.64108 3.761258,5.66576 3.454152,9.81687 -0.566803,7.66137 -3.03632,7.2895 -3.149055,-0.4742 z"
       id="path852"
       inkscape:connector-curvature="0" />
    <path
       style="fill:#798286;stroke-width:1.33333337"
       d="m 62.555556,419.45865 c -0.305556,-0.29774 -2.468781,-0.83961 -4.807168,-1.20414 -5.598221,-0.87271 -6.702243,-1.65311 -9.21626,-6.51468 -4.241367,-8.2019 0.196721,-20.17574 8.798767,-23.73882 4.589912,-1.90121 6.521557,-1.03636 4.127694,1.84807 -1.146654,1.38163 -1.177898,2.16701 -0.1124,2.82553 0.901423,0.55711 -0.6042,2.51055 -3.869048,5.01982 C 52.271292,401.69549 51.516551,404 55.412023,404 c 1.056721,0 1.92131,0.66504 1.92131,1.47788 0,0.88336 1.254203,1.16309 3.117751,0.69537 1.8237,-0.45772 4.175701,0.0361 5.666667,1.18976 2.418444,1.87132 2.428044,2.04468 0.18754,3.38659 -1.298758,0.77785 -2.013348,1.97741 -1.587978,2.66568 1.05928,1.71395 6.42203,1.57871 8.207727,-0.20699 0.802105,-0.8021 2.479348,-1.2521 3.727204,-1 2.032457,0.41062 1.967675,0.84038 -0.621813,4.12504 C 73.793396,419.17092 72.005984,420 68.125449,420 c -2.757886,0 -5.264338,-0.24361 -5.569893,-0.54135 z M 79.979583,403.07869 C 79.955745,395.59236 79.361369,394.44944 74,391.58053 c -3.546309,-1.89765 -3.667428,-2.14649 -1.067855,-2.19381 4.218307,-0.0768 9.734522,7.66409 9.734522,13.66044 0,2.63751 -0.6,5.16628 -1.333334,5.61951 -0.817346,0.50514 -1.341234,-1.65735 -1.35375,-5.58798 z"
       id="path850"
       inkscape:connector-curvature="0" />
    <path
       style="fill:#a77c55;stroke-width:1.33333337"
       d="m 57.154099,417.91172 c -4.935164,-1.51951 -6.63363,-2.86011 -8.436184,-6.65872 -3.181683,-6.70489 -1.682852,-14.52199 3.73283,-19.46845 3.929182,-3.58875 10.02015,-5.37052 8.179824,-2.39282 -0.473078,0.76547 -0.260424,2.11547 0.472567,3 0.957677,1.1557 -0.120387,2.70059 -3.831021,5.48994 -5.03339,3.7837 -5.743164,6.11833 -1.860092,6.11833 1.056721,0 1.92131,0.66504 1.92131,1.47788 0,0.88336 1.254203,1.16309 3.117751,0.69537 1.8237,-0.45772 4.175701,0.0361 5.666667,1.18976 2.418444,1.87132 2.428044,2.04468 0.18754,3.38659 -1.298758,0.77785 -2.013348,1.97741 -1.587978,2.66568 1.05928,1.71395 6.42203,1.57871 8.207727,-0.20699 0.802105,-0.8021 2.479348,-1.2521 3.727204,-1 2.032457,0.41062 1.967675,0.84038 -0.621813,4.12504 -3.352151,4.25207 -8.73159,4.70188 -18.876332,1.57839 z M 79.979583,403.07869 C 79.955745,395.59236 79.361369,394.44944 74,391.58053 c -3.546309,-1.89765 -3.667428,-2.14649 -1.067855,-2.19381 4.218307,-0.0768 9.734522,7.66409 9.734522,13.66044 0,2.63751 -0.6,5.16628 -1.333334,5.61951 -0.817346,0.50514 -1.341234,-1.65735 -1.35375,-5.58798 z"
       id="path848"
       inkscape:connector-curvature="0" />
    <path
       style="fill:#98815c;stroke-width:1.33333337"
       d="m 57.154099,417.91172 c -7.772866,-2.39321 -11.213184,-8.33673 -9.770019,-16.87875 1.526148,-9.0332 13.026723,-17.48757 13.462545,-9.89668 0.118747,2.06835 -1.355078,4.41431 -4.333333,6.89755 C 54.030981,400.10356 52,402.19635 52,402.68447 c 0,1.5269 7.194975,4.43242 10.205985,4.12142 3.487343,-0.36017 5.456692,2.22894 2.545191,3.34618 -1.14648,0.43994 -2.084509,1.6357 -2.084509,2.65725 0,2.25651 8.086344,2.571 10.258373,0.39897 0.802105,-0.8021 2.479348,-1.2521 3.727204,-1 2.032457,0.41062 1.967675,0.84038 -0.621813,4.12504 -3.352151,4.25207 -8.73159,4.70188 -18.876332,1.57839 z M 80,402.66667 c 0,-4.20984 0.510784,-6.50836 1.333333,-6 0.733334,0.45322 1.333334,3.15322 1.333334,6 0,2.84677 -0.6,5.54677 -1.333334,6 C 80.510784,409.17503 80,406.87651 80,402.66667 Z m -5.333333,-10.82799 c -3.627354,-1.94416 -4.04456,-2.50167 -1.873318,-2.50328 1.536343,-10e-4 3.879336,1.19793 5.206651,2.6646 2.817885,3.11373 2.773111,3.11156 -3.333333,-0.16132 z"
       id="path846"
       inkscape:connector-curvature="0" />
    <path
       style="fill:#897c68;stroke-width:1.33333337"
       d="M 57.154099,417.94299 C 49.380596,415.51024 45.943291,409.56093 47.38408,401.03297 48.883249,392.15945 60.702389,383.32067 60.800061,391 c 0.03738,2.93907 -5.037248,9 -7.535424,9 C 52.569087,400 52,400.80369 52,401.78597 c 0,2.25679 6.413985,5.41158 10.205985,5.01992 3.487343,-0.36017 5.456692,2.22894 2.545191,3.34618 -1.14648,0.43994 -2.084509,1.71205 -2.084509,2.82689 0,1.62396 1.301725,1.90191 6.547046,1.39789 6.193834,-0.59514 6.491728,-0.47841 5.521698,2.1637 -1.302628,3.54802 -8.811467,4.14698 -17.581312,1.40244 z m 23.758436,-14.41256 c -0.59647,-2.82494 -0.745799,-5.47494 -0.331846,-5.8889 1.508796,-1.5088 2.253207,0.87518 1.839616,5.89138 l -0.423282,5.13376 z m -6.245868,-12.94246 c 0,-0.77661 0.6,-1.0412 1.333333,-0.58797 0.733333,0.45323 1.333333,1.08864 1.333333,1.41203 0,0.32338 -0.6,0.58797 -1.333333,0.58797 -0.733333,0 -1.333333,-0.63541 -1.333333,-1.41203 z"
       id="path844"
       inkscape:connector-curvature="0" />
    <path
       style="fill:#6f7c82;stroke-width:1.33333337"
       d="m 59.333333,417.79341 c -1.466666,-0.31014 -3.945216,-0.83404 -5.507889,-1.16421 -1.618159,-0.34189 -3.814787,-2.65193 -5.102851,-5.36633 -3.186488,-6.71503 -1.690941,-14.52874 3.728152,-19.47832 5.00843,-4.5745 9.77709,-5.28063 7.549255,-1.11788 -1.052756,1.96709 -1.013987,2.66666 0.147785,2.66666 0.866219,0 -0.04359,1.5 -2.021784,3.33334 C 56.147801,398.5 53.960188,400 53.264637,400 52.569087,400 52,400.80369 52,401.78597 c 0,2.25679 6.413985,5.41158 10.205985,5.01992 3.487343,-0.36017 5.456692,2.22894 2.545191,3.34618 -1.14648,0.43994 -2.084509,1.71205 -2.084509,2.82689 0,1.62641 1.305424,1.90155 6.605694,1.39227 6.102219,-0.58635 6.505143,-0.44684 5.286422,1.83036 -1.297962,2.42525 -7.980411,3.12392 -15.22545,1.59182 z m 21.654627,-14.2358 c -1.546012,-3.82197 -1.268523,-7.03817 0.45826,-5.3114 0.795421,0.79543 1.240003,2.86543 0.98796,4.6 -0.403487,2.77683 -0.576347,2.86186 -1.44622,0.7114 z"
       id="path842"
       inkscape:connector-curvature="0" />
    <path
       style="fill:#767a78;stroke-width:1.33333337"
       d="m 58,417.69345 c -12.291256,-1.76274 -15.124192,-20.15165 -4.149431,-26.93444 5.535218,-3.42094 6.12571,-3.43089 5.482764,-0.0923 -0.282454,1.46666 0.139611,2.66666 0.93792,2.66666 0.798311,0 -0.167053,1.5 -2.145252,3.33334 C 56.147801,398.5 53.960188,400 53.264637,400 52.569087,400 52,400.80369 52,401.78597 c 0,2.25679 6.413985,5.41158 10.205985,5.01992 3.487343,-0.36017 5.456692,2.22894 2.545191,3.34618 -1.14648,0.43994 -2.084509,1.71205 -2.084509,2.82689 0,1.62641 1.305424,1.90155 6.605694,1.39227 6.102219,-0.58635 6.505143,-0.44684 5.286422,1.83036 -1.331434,2.4878 -6.418544,2.94613 -16.558783,1.49186 z m 22.98796,-14.13584 c -1.546012,-3.82197 -1.268523,-7.03817 0.45826,-5.3114 0.795421,0.79543 1.240003,2.86543 0.98796,4.6 -0.403487,2.77683 -0.576347,2.86186 -1.44622,0.7114 z"
       id="path840"
       inkscape:connector-curvature="0" />
    <path
       style="fill:#977856;stroke-width:1.33333337"
       d="m 57.674884,417.36693 c -5.735992,-1.3617 -7.901,-3.32534 -9.710084,-8.80692 -1.979693,-5.99853 0.172443,-12.64985 5.559836,-17.18304 4.836721,-4.06984 6.461491,-4.2786 5.528363,-0.7103 -0.425442,1.62689 -0.04091,2.66666 0.986189,2.66666 0.925947,0 0.06501,1.5 -1.913187,3.33334 C 56.147801,398.5 53.960188,400 53.264637,400 52.569087,400 52,400.80369 52,401.78597 c 0,2.25679 6.413985,5.41158 10.205985,5.01992 3.487343,-0.36017 5.456692,2.22894 2.545191,3.34618 -1.14648,0.43994 -2.084509,1.71205 -2.084509,2.82689 0,1.62641 1.305424,1.90155 6.605694,1.39227 6.102219,-0.58635 6.505143,-0.44684 5.286422,1.83036 -1.424264,2.66125 -8.519666,3.15098 -16.883899,1.16534 z M 80.98796,403.55761 c -1.546012,-3.82197 -1.268523,-7.03817 0.45826,-5.3114 0.795421,0.79543 1.240003,2.86543 0.98796,4.6 -0.403487,2.77683 -0.576347,2.86186 -1.44622,0.7114 z"
       id="path838"
       inkscape:connector-curvature="0" />
    <path
       style="fill:#68767c;stroke-width:1.33333337"
       d="m 57.674884,417.39712 c -5.749097,-1.40495 -7.904705,-3.36676 -9.710084,-8.83711 -1.979693,-5.99853 0.172443,-12.64985 5.559836,-17.18304 5.220349,-4.39264 6.142896,-4.25849 5.402583,0.78559 -0.413226,2.81548 -1.845984,4.86507 -4.427314,6.33333 -3.982682,2.26538 -5.25055,6.83744 -1.896069,6.83744 1.065443,0 3.905464,2.44928 6.311157,5.44284 4.056022,5.04718 4.787782,5.40994 10.066122,4.99014 3.41614,-0.2717 5.515858,0.0844 5.251282,0.89049 -0.553309,1.68585 -10.811492,2.14452 -16.557513,0.74032 z m 4.338557,-9.41887 c 0.460619,-0.74529 1.396028,-1.00989 2.07869,-0.58797 1.849392,1.14297 1.504548,1.94305 -0.837487,1.94305 -1.143279,0 -1.70182,-0.60978 -1.241203,-1.35508 z m 18.86051,-5.80225 c -0.552052,-2.1032 -0.688655,-4.13908 -0.303559,-4.52417 1.073591,-1.07359 2.386019,3.22049 1.814548,5.93696 -0.373975,1.77766 -0.770988,1.40645 -1.510989,-1.41279 z"
       id="path836"
       inkscape:connector-curvature="0" />
    <path
       style="fill:#787369;stroke-width:1.33333337"
       d="m 57.674884,417.39712 c -5.749097,-1.40495 -7.904705,-3.36676 -9.710084,-8.83711 -2.5412,-7.69992 3.307009,-19.48137 8.652207,-17.43024 3.309065,1.26982 2.360956,4.81712 -1.94191,7.26558 -4.121657,2.34534 -5.492741,6.93798 -2.071261,6.93798 1.065443,0 3.905464,2.44928 6.311157,5.44284 4.056022,5.04718 4.787782,5.40994 10.066122,4.99014 3.41614,-0.2717 5.515858,0.0844 5.251282,0.89049 -0.553309,1.68585 -10.811492,2.14452 -16.557513,0.74032 z m 4.338557,-9.41887 c 0.460619,-0.74529 1.396028,-1.00989 2.07869,-0.58797 1.849392,1.14297 1.504548,1.94305 -0.837487,1.94305 -1.143279,0 -1.70182,-0.60978 -1.241203,-1.35508 z m 18.86051,-5.80225 c -0.552052,-2.1032 -0.688655,-4.13908 -0.303559,-4.52417 1.073591,-1.07359 2.386019,3.22049 1.814548,5.93696 -0.373975,1.77766 -0.770988,1.40645 -1.510989,-1.41279 z"
       id="path834"
       inkscape:connector-curvature="0" />
    <path
       style="fill:#897355;stroke-width:1.33333337"
       d="m 56.933673,417.07777 c -7.177556,-1.94664 -9.50117,-6.05622 -8.346373,-14.76152 1.262784,-9.51933 7.023128,-15.39592 9.293052,-9.48058 0.974344,2.53909 -1.062865,5.39184 -4.667425,6.53588 -2.961982,0.94009 -3.475027,5.96178 -0.609091,5.96178 1.065443,0 3.905464,2.44928 6.311157,5.44284 4.056022,5.04718 4.787782,5.40994 10.066122,4.99014 3.41614,-0.2717 5.515858,0.0844 5.251282,0.89049 -0.604152,1.84076 -11.120181,2.09668 -17.298724,0.42097 z m 5.079768,-9.09952 c 0.460619,-0.74529 1.396028,-1.00989 2.07869,-0.58797 1.849392,1.14297 1.504548,1.94305 -0.837487,1.94305 -1.143279,0 -1.70182,-0.60978 -1.241203,-1.35508 z m 18.86051,-5.80225 c -0.552052,-2.1032 -0.688655,-4.13908 -0.303559,-4.52417 1.073591,-1.07359 2.386019,3.22049 1.814548,5.93696 -0.373975,1.77766 -0.770988,1.40645 -1.510989,-1.41279 z"
       id="path832"
       inkscape:connector-curvature="0" />
    <path
       style="fill:#846d58;stroke-width:1.33333337"
       d="m 53.753829,415.99069 c -4.557452,-1.83624 -6.163782,-6.15677 -5.144829,-13.83801 0.901939,-6.79916 3.671913,-11.48601 6.788332,-11.48601 3.655564,0 2.840749,3.88877 -1.64738,7.86226 -3.900612,3.45334 -4.429927,4.51514 -3.068569,6.15547 0.904825,1.09024 2.471669,1.98227 3.481877,1.98227 1.010207,0 1.83674,0.22672 1.83674,0.50384 0,0.2771 0.908052,2.6771 2.017893,5.33333 2.17477,5.20495 1.456974,5.79191 -4.264064,3.48685 z M 81.593265,402 c 0.02717,-2.2 0.325998,-2.93859 0.664056,-1.64129 0.338058,1.29729 0.315826,3.09729 -0.0494,4 C 81.842685,405.26141 81.566092,404.2 81.593265,402 Z"
       id="path830"
       inkscape:connector-curvature="0" />
    <path
       style="fill:#7b735a;stroke-width:1.33333337"
       d="m 53.753829,415.99069 c -3.771272,-1.51948 -5.775029,-5.37304 -5.669314,-10.90304 0.07381,-3.8613 0.231678,-4.05604 1.246993,-1.53824 0.639363,1.58551 2.351183,3.26003 3.804043,3.72115 1.452861,0.46112 3.291714,2.70341 4.086341,4.98288 2.044011,5.86345 1.980075,5.93236 -3.468063,3.73725 z M 81.593265,402 c 0.02717,-2.2 0.325998,-2.93859 0.664056,-1.64129 0.338058,1.29729 0.315826,3.09729 -0.0494,4 C 81.842685,405.26141 81.566092,404.2 81.593265,402 Z m -32.259932,-4.41311 c 0,-2.64344 3.890803,-6.92022 6.29567,-6.92022 2.159797,0 3.089037,3.63924 1.291742,5.05893 -0.873076,0.68965 -2.937412,1.95463 -4.587412,2.81107 -2.599518,1.34928 -3,1.22249 -3,-0.94978 z"
       id="path828"
       inkscape:connector-curvature="0" />
    <path
       style="fill:#6a716c;stroke-width:1.33333337"
       d="m 50.075605,413.03665 c -1.141582,-1.62982 -2.037573,-5.07982 -1.99109,-7.66666 0.07233,-4.02554 0.252036,-4.2879 1.246993,-1.82058 0.639363,1.58551 2.401331,3.27595 3.915485,3.75652 C 55.204309,407.92716 56,409.30984 56,412.08985 c 0,4.74315 -2.936611,5.21247 -5.924395,0.9468 z m -0.742272,-15.46242 c 0,-2.70404 3.917966,-6.90756 6.438322,-6.90756 3.253149,0 1.490325,5.30174 -2.438322,7.33333 -3.7561,1.94236 -4,1.9164 -4,-0.42577 z"
       id="path826"
       inkscape:connector-curvature="0" />
    <path
       style="fill:#766a56;stroke-width:1.33333337"
       d="m 50.76344,412.48685 c -1.526371,-1.94046 -2.725607,-5.37249 -2.678925,-7.66666 0.0754,-3.7053 0.209964,-3.84243 1.246993,-1.27078 0.639363,1.58551 2.401331,3.27595 3.915485,3.75652 C 55.204309,407.92716 56,409.30984 56,412.08985 c 0,4.84316 -1.641325,4.9676 -5.23656,0.397 z m -1.430107,-14.91262 c 0,-2.70404 3.917966,-6.90756 6.438322,-6.90756 3.253149,0 1.490325,5.30174 -2.438322,7.33333 -3.7561,1.94236 -4,1.9164 -4,-0.42577 z"
       id="path824"
       inkscape:connector-curvature="0" />
    <path
       style="fill:#666a63;stroke-width:1.33333337"
       d="m 50.818672,412.55707 c -2.893688,-3.67872 -3.874809,-8.03384 -1.475856,-6.5512 1.758617,1.08688 5.698333,8.73076 4.907505,9.52158 -0.337137,0.33715 -1.881378,-0.99953 -3.431649,-2.97038 z M 49.333333,396.952 c 0,-2.19756 4.187264,-6.28533 6.438322,-6.28533 2.267749,0 1.914178,1.95064 -0.771655,4.25721 -3.970379,3.40972 -5.666667,4.01683 -5.666667,2.02812 z"
       id="path822"
       inkscape:connector-curvature="0" />
    <path
       style="fill:#5d696c;stroke-width:1.33333337"
       d="m 50.76344,411.15352 c -2.908087,-3.69703 -3.696621,-6.55431 -1.420624,-5.14765 1.475151,0.91169 5.759312,8.6608 4.788197,8.6608 -0.332273,0 -1.847681,-1.58092 -3.367573,-3.51315 z m -1.430107,-13.0378 c 0,-2.24759 4.540015,-7.44687 6.48668,-7.42864 1.704852,0.016 1.791911,0.26641 0.39944,1.14908 -0.979301,0.62076 -1.579301,1.58839 -1.333333,2.15028 0.245967,0.56189 -0.902787,1.918 -2.552787,3.01356 -1.65,1.09556 -3,1.59763 -3,1.11572 z"
       id="path820"
       inkscape:connector-curvature="0" />
    <path
       style="fill:#686558;stroke-width:1.33333337"
       d="m 50.76344,411.15352 c -2.908087,-3.69703 -3.696621,-6.55431 -1.420624,-5.14765 1.475151,0.91169 5.759312,8.6608 4.788197,8.6608 -0.332273,0 -1.847681,-1.58092 -3.367573,-3.51315 z m -1.430107,-13.50661 c 0,-1.73035 3.00149,-4.31358 5.012023,-4.31358 0.996612,0 1.443196,0.59678 0.992408,1.32616 -1.179272,1.90811 -6.004431,4.30879 -6.004431,2.98742 z"
       id="path818"
       inkscape:connector-curvature="0" />
    <path
       style="fill:#615f52;stroke-width:1.33333337"
       d="m 50.666667,396.24195 c 0,-1.6114 2.5296,-3.49012 3.454262,-2.56547 0.335599,0.3356 -0.30432,1.36915 -1.422041,2.29677 -1.267179,1.05167 -2.032221,1.15283 -2.032221,0.2687 z"
       id="path816"
       inkscape:connector-curvature="0" />
  </g>
  <text
     xml:space="preserve"
     style="font-style:normal;font-variant:normal;font-weight:normal;font-stretch:normal;font-size:25.25796509px;line-height:1.25;font-family:'Kruti Dev 010';-inkscape-font-specification:'Kruti Dev 010, ';letter-spacing:0px;word-spacing:0px;fill:#000000;fill-opacity:1;stroke:none;stroke-width:0.63144892"
     x="-254.27975"
     y="83.507622"
     id="text838"
     transform="matrix(-0.02610526,-0.890152,1.1227967,-0.02069622,0,0)"><tspan
       sodipodi:role="line"
       id="tspan836"
       x="-254.27975"
       y="83.507622"
       style="stroke-width:0.63144892">eaxy</tspan></text>
</svg>
