<?xml version="1.0" encoding="UTF-8" standalone="no"?>
<!-- Created with Inkscape (http://www.inkscape.org/) -->

<svg
   xmlns:dc="http://purl.org/dc/elements/1.1/"
   xmlns:cc="http://creativecommons.org/ns#"
   xmlns:rdf="http://www.w3.org/1999/02/22-rdf-syntax-ns#"
   xmlns:svg="http://www.w3.org/2000/svg"
   xmlns="http://www.w3.org/2000/svg"
   xmlns:sodipodi="http://sodipodi.sourceforge.net/DTD/sodipodi-0.dtd"
   xmlns:inkscape="http://www.inkscape.org/namespaces/inkscape"
   width="600"
   height="600"
   viewBox="0 0 158.75 158.75"
   version="1.1"
   id="svg8"
   inkscape:version="0.92.5 (2060ec1f9f, 2020-04-08)"
   sodipodi:docname="zodiac.svg">
  <defs
     id="defs2" />
  <sodipodi:namedview
     id="base"
     pagecolor="#ffffff"
     bordercolor="#666666"
     borderopacity="1.0"
     inkscape:pageopacity="0.0"
     inkscape:pageshadow="2"
     inkscape:zoom="0.86772068"
     inkscape:cx="208.58415"
     inkscape:cy="353.09612"
     inkscape:document-units="mm"
     inkscape:current-layer="layer1"
     showgrid="false"
     units="px"
     inkscape:window-width="1366"
     inkscape:window-height="701"
     inkscape:window-x="0"
     inkscape:window-y="0"
     inkscape:window-maximized="1" />
  <metadata
     id="metadata5">
    <rdf:RDF>
      <cc:Work
         rdf:about="">
        <dc:format>image/svg+xml</dc:format>
        <dc:type
           rdf:resource="http://purl.org/dc/dcmitype/StillImage" />
        <dc:title></dc:title>
      </cc:Work>
    </rdf:RDF>
  </metadata>
  <g
     inkscape:label="Layer 1"
     inkscape:groupmode="layer"
     id="layer1"
     transform="translate(0,-138.24998)">
    <g
       id="g4828">
      <path
         transform="matrix(0.26458333,0,0,0.26458333,0,138.24998)"
         id="path4814"
         d="M 533.55664 165.20508 C 544.17377 159.12573 550.77365 155.37518 559.67188 150.29297 A 300 300 0 0 0 449.97266 40.607422 C 444.83871 49.40477 441.02493 55.908759 434.91406 66.40625 A 270 270 0 0 1 533.55664 165.20508 z "
         style="stroke-width:2.5504477;fill:#0000d4" />
      <path
         transform="matrix(0.26458333,0,0,0.26458333,0,138.24998)"
         id="path4812"
         d="M 569.99805 300.04492 C 582.17822 300.08856 589.78932 300.13981 599.99414 300.1875 A 300 300 0 0 0 600 300 A 300 300 0 0 0 559.67188 150.29297 C 550.77365 155.37518 544.17377 159.12573 533.55664 165.20508 A 270 270 0 0 1 570 300 A 270 270 0 0 1 569.99805 300.04492 z "
         style="stroke-width:2.5504477;fill:#3771c8" />
      <path
         transform="matrix(0.26458333,0,0,0.26458333,0,138.24998)"
         id="path4810"
         d="M 533.59375 434.91406 C 544.09124 441.02493 550.59523 444.83871 559.39258 449.97266 A 300 300 0 0 0 599.99414 300.1875 C 589.78932 300.13981 582.17822 300.08856 569.99805 300.04492 A 270 270 0 0 1 533.59375 434.91406 z "
         style="stroke-width:2.5504477;fill:#00ccff" />
      <path
         transform="matrix(0.26458333,0,0,0.26458333,0,138.24998)"
         id="path4808"
         d="M 434.79492 533.55664 C 440.87427 544.17377 444.62482 550.77365 449.70703 559.67188 A 300 300 0 0 0 559.39258 449.97266 C 550.59523 444.83871 544.09124 441.02493 533.59375 434.91406 A 270 270 0 0 1 434.79492 533.55664 z "
         style="stroke-width:2.5504477;fill:#00ff66" />
      <path
         transform="matrix(0.26458333,0,0,0.26458333,0,138.24998)"
         id="path4806"
         d="M 299.95508 569.99805 C 299.91144 582.17822 299.86019 589.78932 299.8125 599.99414 A 300 300 0 0 0 300 600 A 300 300 0 0 0 449.70703 559.67188 C 444.62482 550.77365 440.87427 544.17377 434.79492 533.55664 A 270 270 0 0 1 300 570 A 270 270 0 0 1 299.95508 569.99805 z "
         style="stroke-width:2.5504477;fill:#66ff00" />
      <path
         transform="matrix(0.26458333,0,0,0.26458333,0,138.24998)"
         id="path4804"
         d="M 165.08594 533.59375 C 158.97507 544.09124 155.16129 550.59523 150.02734 559.39258 A 300 300 0 0 0 299.8125 599.99414 C 299.86019 589.78932 299.91144 582.17822 299.95508 569.99805 A 270 270 0 0 1 165.08594 533.59375 z "
         style="stroke-width:2.5504477;fill:#ffcc00" />
      <path
         transform="matrix(0.26458333,0,0,0.26458333,0,138.24998)"
         id="path4802"
         d="M 66.443359 434.79492 C 55.82623 440.87427 49.22635 444.62482 40.328125 449.70703 A 300 300 0 0 0 150.02734 559.39258 C 155.16129 550.59523 158.97507 544.09124 165.08594 533.59375 A 270 270 0 0 1 66.443359 434.79492 z "
         style="stroke-width:2.5504477;fill:#ff6600" />
      <path
         transform="matrix(0.26458333,0,0,0.26458333,0,138.24998)"
         id="path4800"
         d="M 30.001953 299.95508 C 17.821784 299.91144 10.210677 299.86019 0.005859375 299.8125 A 300 300 0 0 0 0 300 A 300 300 0 0 0 40.328125 449.70703 C 49.22635 444.62482 55.82623 440.87427 66.443359 434.79492 A 270 270 0 0 1 30 300 A 270 270 0 0 1 30.001953 299.95508 z "
         style="stroke-width:2.5504477;fill:#ff2a2a" />
      <path
         transform="matrix(0.26458333,0,0,0.26458333,0,138.24998)"
         id="path4798"
         d="M 66.40625 165.08594 C 55.908759 158.97507 49.40477 155.16129 40.607422 150.02734 A 300 300 0 0 0 0.005859375 299.8125 C 10.210677 299.86019 17.821784 299.91144 30.001953 299.95508 A 270 270 0 0 1 66.40625 165.08594 z "
         style="stroke-width:2.5504477;fill:#ff0066" />
      <path
         transform="matrix(0.26458333,0,0,0.26458333,0,138.24998)"
         id="path4796"
         d="M 165.20508 66.443359 C 159.12573 55.82623 155.37518 49.22635 150.29297 40.328125 A 300 300 0 0 0 40.607422 150.02734 C 49.40477 155.16129 55.908759 158.97507 66.40625 165.08594 A 270 270 0 0 1 165.20508 66.443359 z "
         style="stroke-width:2.5504477;fill:#ff00cc" />
      <path
         transform="matrix(0.26458333,0,0,0.26458333,0,138.24998)"
         id="path4794"
         d="M 300.1875 0.005859375 A 300 300 0 0 0 300 0 A 300 300 0 0 0 150.29297 40.328125 C 155.37518 49.22635 159.12573 55.82623 165.20508 66.443359 A 270 270 0 0 1 300 30 A 270 270 0 0 1 300.04492 30.001953 C 300.08856 17.821784 300.13981 10.210677 300.1875 0.005859375 z "
         style="stroke-width:2.5504477;fill:#cc00ff" />
      <path
         transform="matrix(0.26458333,0,0,0.26458333,0,138.24998)"
         id="path10"
         d="M 300.1875 0.005859375 C 300.13981 10.210677 300.08856 17.821784 300.04492 30.001953 A 270 270 0 0 1 434.91406 66.40625 C 441.02493 55.908759 444.83871 49.40477 449.97266 40.607422 A 300 300 0 0 0 300.1875 0.005859375 z "
         style="stroke-width:2.5504477;fill:#7f2aff" />
    </g>
    <text
       xml:space="preserve"
       style="font-style:normal;font-weight:normal;font-size:10.58333302px;line-height:1.25;font-family:'Kruti Dev 010';letter-spacing:0px;word-spacing:0px;fill:#000000;fill-opacity:1;stroke:none;stroke-width:0.26458332;-inkscape-font-specification:'Kruti Dev 010, ';font-stretch:normal;font-variant:normal;"
       x="189.31519"
       y="193.955"
       id="text4832"><tspan
         sodipodi:role="line"
         id="tspan4830"
         x="189.31519"
         y="203.02921"
         style="stroke-width:0.26458332;-inkscape-font-specification:'Kruti Dev 010, ';font-family:'Kruti Dev 010';font-weight:normal;font-style:normal;font-stretch:normal;font-variant:normal;" /></text>
    <text
       xml:space="preserve"
       style="font-style:normal;font-variant:normal;font-weight:normal;font-stretch:normal;font-size:5.64444447px;line-height:1.25;font-family:'Kruti Dev 010';-inkscape-font-specification:'Kruti Dev 010, ';letter-spacing:0px;word-spacing:0px;fill:#000000;fill-opacity:1;stroke:none;stroke-width:0.26458332"
       x="-233.97156"
       y="-46.181599"
       id="text4836"
       transform="rotate(-103.2156)"><tspan
         sodipodi:role="line"
         id="tspan4834"
         x="-233.97156"
         y="-46.181599"
         style="font-style:normal;font-variant:normal;font-weight:normal;font-stretch:normal;font-size:5.64444447px;font-family:'Kruti Dev 010';-inkscape-font-specification:'Kruti Dev 010, ';stroke-width:0.26458332">es&quot;k</tspan></text>
    <text
       xml:space="preserve"
       style="font-style:normal;font-weight:normal;font-size:10.58333302px;line-height:1.25;font-family:'Kruti Dev 010';letter-spacing:0px;word-spacing:0px;fill:#000000;fill-opacity:1;stroke:none;stroke-width:0.26458332;-inkscape-font-specification:'Kruti Dev 010, ';font-stretch:normal;font-variant:normal;"
       x="195.70558"
       y="158.40848"
       id="text4840"><tspan
         sodipodi:role="line"
         id="tspan4838"
         x="195.70558"
         y="167.48268"
         style="stroke-width:0.26458332;-inkscape-font-specification:'Kruti Dev 010, ';font-family:'Kruti Dev 010';font-weight:normal;font-style:normal;font-stretch:normal;font-variant:normal;" /></text>
    <text
       xml:space="preserve"
       style="font-style:normal;font-variant:normal;font-weight:normal;font-stretch:normal;font-size:5.64444444px;line-height:1.25;font-family:'Kruti Dev 010';-inkscape-font-specification:'Kruti Dev 010, ';letter-spacing:0px;word-spacing:0px;fill:#000000;fill-opacity:1;stroke:none;stroke-width:0.26458332;"
       x="-216.76314"
       y="-167.62671"
       id="text4844"
       transform="rotate(-133.53729)"><tspan
         sodipodi:role="line"
         id="tspan4842"
         x="-216.76314"
         y="-167.62671"
         style="font-style:normal;font-variant:normal;font-weight:normal;font-stretch:normal;font-family:'Kruti Dev 010';-inkscape-font-specification:'Kruti Dev 010, ';stroke-width:0.26458332;font-size:5.64444444px;">o`&quot;k</tspan></text>
    <text
       xml:space="preserve"
       style="font-style:normal;font-weight:normal;font-size:10.58333302px;line-height:1.25;font-family:sans-serif;letter-spacing:0px;word-spacing:0px;fill:#000000;fill-opacity:1;stroke:none;stroke-width:0.26458332"
       x="191.31219"
       y="178.37843"
       id="text4848"><tspan
         sodipodi:role="line"
         id="tspan4846"
         x="191.31219"
         y="187.45264"
         style="stroke-width:0.26458332"></tspan></text>
    <text
       xml:space="preserve"
       style="font-style:normal;font-variant:normal;font-weight:normal;font-stretch:normal;font-size:5.64444447px;line-height:1.25;font-family:'Kruti Dev 010';-inkscape-font-specification:'Kruti Dev 010, ';letter-spacing:0px;word-spacing:0px;fill:#000000;fill-opacity:1;stroke:none;stroke-width:0.26458332"
       x="-107.88281"
       y="-277.15488"
       id="text4844-9"
       transform="rotate(-171.48334)"><tspan
         sodipodi:role="line"
         id="tspan4842-1"
         x="-107.88281"
         y="-277.15488"
         style="font-style:normal;font-variant:normal;font-weight:normal;font-stretch:normal;font-size:5.64444447px;font-family:'Kruti Dev 010';-inkscape-font-specification:'Kruti Dev 010, ';stroke-width:0.26458332">feFkqu</tspan></text>
    <text
       xml:space="preserve"
       style="font-style:normal;font-variant:normal;font-weight:normal;font-stretch:normal;font-size:5.64444447px;line-height:1.25;font-family:'Kruti Dev 010';-inkscape-font-specification:'Kruti Dev 010, ';letter-spacing:0px;word-spacing:0px;fill:#000000;fill-opacity:1;stroke:none;stroke-width:0.26458332"
       x="206.18361"
       y="10.599586"
       id="text4844-96"
       transform="rotate(48.661937)"><tspan
         sodipodi:role="line"
         id="tspan4842-9"
         x="206.18361"
         y="10.599586"
         style="font-style:normal;font-variant:normal;font-weight:normal;font-stretch:normal;font-size:5.64444447px;font-family:'Kruti Dev 010';-inkscape-font-specification:'Kruti Dev 010, ';stroke-width:0.26458332">o`f'pd</tspan></text>
    <text
       xml:space="preserve"
       style="font-style:normal;font-variant:normal;font-weight:normal;font-stretch:normal;font-size:5.64444447px;line-height:1.25;font-family:'Kruti Dev 010';-inkscape-font-specification:'Kruti Dev 010, ';letter-spacing:0px;word-spacing:0px;fill:#000000;fill-opacity:1;stroke:none;stroke-width:0.26458332"
       x="-11.973211"
       y="-304.80817"
       id="text4844-3"
       transform="rotate(162.40166)"><tspan
         sodipodi:role="line"
         id="tspan4842-3"
         x="-11.973211"
         y="-304.80817"
         style="font-style:normal;font-variant:normal;font-weight:normal;font-stretch:normal;font-size:5.64444447px;font-family:'Kruti Dev 010';-inkscape-font-specification:'Kruti Dev 010, ';stroke-width:0.26458332">ddZ</tspan></text>
    <text
       id="text4886"
       y="-275.4256"
       x="113.28534"
       style="font-style:normal;font-variant:normal;font-weight:normal;font-stretch:normal;font-size:5.64444447px;line-height:1.25;font-family:'Kruti Dev 010';-inkscape-font-specification:'Kruti Dev 010, ';letter-spacing:0px;word-spacing:0px;fill:#000000;fill-opacity:1;stroke:none;stroke-width:0.26458332"
       xml:space="preserve"
       transform="rotate(130.97164)"><tspan
         style="font-style:normal;font-variant:normal;font-weight:normal;font-stretch:normal;font-size:5.64444447px;font-family:'Kruti Dev 010';-inkscape-font-specification:'Kruti Dev 010, ';stroke-width:0.26458332"
         y="-275.4256"
         x="113.28534"
         id="tspan4884"
         sodipodi:role="line">flag</tspan></text>
    <text
       id="text4890"
       y="-223.23387"
       x="165.72594"
       style="font-style:normal;font-variant:normal;font-weight:normal;font-stretch:normal;font-size:5.64444447px;line-height:1.25;font-family:'Kruti Dev 010';-inkscape-font-specification:'Kruti Dev 010, ';letter-spacing:0px;word-spacing:0px;fill:#000000;fill-opacity:1;stroke:none;stroke-width:0.26458332"
       xml:space="preserve"
       transform="rotate(110.10364)"><tspan
         style="font-style:normal;font-variant:normal;font-weight:normal;font-stretch:normal;font-size:5.64444447px;font-family:'Kruti Dev 010';-inkscape-font-specification:'Kruti Dev 010, ';stroke-width:0.26458332"
         y="-223.23387"
         x="165.72594"
         id="tspan4888"
         sodipodi:role="line">dU;k</tspan></text>
    <text
       id="text4894"
       y="-104.71253"
       x="223.61127"
       style="font-style:normal;font-variant:normal;font-weight:normal;font-stretch:normal;font-size:5.64444447px;line-height:1.25;font-family:'Kruti Dev 010';-inkscape-font-specification:'Kruti Dev 010, ';letter-spacing:0px;word-spacing:0px;fill:#000000;fill-opacity:1;stroke:none;stroke-width:0.26458332"
       xml:space="preserve"
       transform="rotate(77.740713)"><tspan
         style="font-style:normal;font-variant:normal;font-weight:normal;font-stretch:normal;font-size:5.64444447px;font-family:'Kruti Dev 010';-inkscape-font-specification:'Kruti Dev 010, ';stroke-width:0.26458332"
         y="-104.71253"
         x="223.61127"
         id="tspan4892"
         sodipodi:role="line">rqyk</tspan></text>
    <text
       id="text4898"
       y="107.0177"
       x="134.69688"
       style="font-style:normal;font-variant:normal;font-weight:normal;font-stretch:normal;font-size:5.64444447px;line-height:1.25;font-family:'Kruti Dev 010';-inkscape-font-specification:'Kruti Dev 010, ';letter-spacing:0px;word-spacing:0px;fill:#000000;fill-opacity:1;stroke:none;stroke-width:0.26458332"
       xml:space="preserve"
       transform="rotate(18.65751)"><tspan
         style="font-style:normal;font-variant:normal;font-weight:normal;font-stretch:normal;font-size:5.64444447px;font-family:'Kruti Dev 010';-inkscape-font-specification:'Kruti Dev 010, ';stroke-width:0.26458332"
         y="107.0177"
         x="134.69688"
         id="tspan4896"
         sodipodi:role="line">/kuq</tspan></text>
    <text
       xml:space="preserve"
       style="font-style:normal;font-variant:normal;font-weight:normal;font-stretch:normal;font-size:5.64444447px;line-height:1.25;font-family:'Kruti Dev 010';-inkscape-font-specification:'Kruti Dev 010, ';letter-spacing:0px;word-spacing:0px;fill:#000000;fill-opacity:1;stroke:none;stroke-width:0.26458332"
       x="-4.2325392"
       y="156.35703"
       id="text4902"
       transform="rotate(-20.609111)"><tspan
         sodipodi:role="line"
         id="tspan4900"
         x="-4.2325392"
         y="156.35703"
         style="font-style:normal;font-variant:normal;font-weight:normal;font-stretch:normal;font-size:5.64444447px;font-family:'Kruti Dev 010';-inkscape-font-specification:'Kruti Dev 010, ';stroke-width:0.26458332">edj</tspan></text>
    <text
       id="text4906"
       y="131.74054"
       x="-107.90264"
       style="font-style:normal;font-variant:normal;font-weight:normal;font-stretch:normal;font-size:5.64444447px;line-height:1.25;font-family:'Kruti Dev 010';-inkscape-font-specification:'Kruti Dev 010, ';letter-spacing:0px;word-spacing:0px;fill:#000000;fill-opacity:1;stroke:none;stroke-width:0.26458332"
       xml:space="preserve"
       transform="rotate(-47.181724)"><tspan
         style="font-style:normal;font-variant:normal;font-weight:normal;font-stretch:normal;font-size:5.64444447px;font-family:'Kruti Dev 010';-inkscape-font-specification:'Kruti Dev 010, ';stroke-width:0.26458332"
         y="131.74054"
         x="-107.90264"
         id="tspan4904"
         sodipodi:role="line">dqaHk</tspan></text>
    <text
       xml:space="preserve"
       style="font-style:normal;font-variant:normal;font-weight:normal;font-stretch:normal;font-size:10.58333302px;line-height:1.25;font-family:'Kruti Dev 010';-inkscape-font-specification:'Kruti Dev 010, ';letter-spacing:0px;word-spacing:0px;fill:#000000;fill-opacity:1;stroke:none;stroke-width:0.26458332"
       x="21.113554"
       y="166.29639"
       id="text4910"><tspan
         sodipodi:role="line"
         id="tspan4908"
         x="21.113554"
         y="175.70296"
         style="font-style:normal;font-variant:normal;font-weight:normal;font-stretch:normal;font-family:'Kruti Dev 010';-inkscape-font-specification:'Kruti Dev 010, ';stroke-width:0.26458332" /></text>
    <text
       id="text4914"
       y="44.57029"
       x="-199.09727"
       style="font-style:normal;font-variant:normal;font-weight:normal;font-stretch:normal;font-size:5.64444447px;line-height:1.25;font-family:'Kruti Dev 010';-inkscape-font-specification:'Kruti Dev 010, ';letter-spacing:0px;word-spacing:0px;fill:#000000;fill-opacity:1;stroke:none;stroke-width:0.26458332"
       xml:space="preserve"
       transform="rotate(-79.134792)"><tspan
         style="font-style:normal;font-variant:normal;font-weight:normal;font-stretch:normal;font-size:5.64444447px;font-family:'Kruti Dev 010';-inkscape-font-specification:'Kruti Dev 010, ';stroke-width:0.26458332"
         y="44.57029"
         x="-199.09727"
         id="tspan4912"
         sodipodi:role="line">ehu</tspan></text>
  </g>
</svg>
