<?xml version="1.0" encoding="UTF-8" standalone="no"?>
<svg
   width="600"
   height="600"
   viewBox="0 0 158.75 158.75"
   version="1.1"
   id="svg8"
   inkscape:version="1.1.1 (3bf5ae0d25, 2021-09-20)"
   sodipodi:docname="zodiac_anti.svg"
   xmlns:inkscape="http://www.inkscape.org/namespaces/inkscape"
   xmlns:sodipodi="http://sodipodi.sourceforge.net/DTD/sodipodi-0.dtd"
   xmlns="http://www.w3.org/2000/svg"
   xmlns:svg="http://www.w3.org/2000/svg"
   xmlns:rdf="http://www.w3.org/1999/02/22-rdf-syntax-ns#"
   xmlns:cc="http://creativecommons.org/ns#"
   xmlns:dc="http://purl.org/dc/elements/1.1/">
  <defs
     id="defs2" />
  <sodipodi:namedview
     id="base"
     pagecolor="#ffffff"
     bordercolor="#666666"
     borderopacity="1.0"
     inkscape:pageopacity="0.0"
     inkscape:pageshadow="2"
     inkscape:zoom="0.5738153"
     inkscape:cx="166.42986"
     inkscape:cy="248.33775"
     inkscape:document-units="mm"
     inkscape:current-layer="layer1"
     showgrid="false"
     units="px"
     inkscape:window-width="1326"
     inkscape:window-height="743"
     inkscape:window-x="40"
     inkscape:window-y="0"
     inkscape:window-maximized="1"
     inkscape:document-rotation="0"
     inkscape:pagecheckerboard="0" />
  <metadata
     id="metadata5">
    <rdf:RDF>
      <cc:Work
         rdf:about="">
        <dc:format>image/svg+xml</dc:format>
        <dc:type
           rdf:resource="http://purl.org/dc/dcmitype/StillImage" />
      </cc:Work>
    </rdf:RDF>
  </metadata>
  <g
     inkscape:label="Layer 1"
     inkscape:groupmode="layer"
     id="layer1"
     transform="translate(0,-138.24998)">
    <text
       xml:space="preserve"
       style="font-style:normal;font-variant:normal;font-weight:normal;font-stretch:normal;font-size:10.5833px;line-height:1.25;font-family:'Kruti Dev 010';-inkscape-font-specification:'Kruti Dev 010, ';letter-spacing:0px;word-spacing:0px;fill:#000000;fill-opacity:1;stroke:none;stroke-width:0.264583"
       x="30.565187"
       y="193.955"
       id="text4832"
       transform="scale(-1,1)" />
    <text
       xml:space="preserve"
       style="font-style:normal;font-variant:normal;font-weight:normal;font-stretch:normal;font-size:5.64444px;line-height:1.25;font-family:'Kruti Dev 010';-inkscape-font-specification:'Kruti Dev 010, ';letter-spacing:0px;word-spacing:0px;fill:#000000;fill-opacity:1;stroke:none;stroke-width:0.264583"
       x="191.42186"
       y="-200.63875"
       id="text4836"
       transform="rotate(103.1895)"><tspan
         sodipodi:role="line"
         id="tspan4834"
         x="191.42186"
         y="-200.63875"
         style="font-style:normal;font-variant:normal;font-weight:normal;font-stretch:normal;font-size:5.64444px;font-family:'Kruti Dev 010';-inkscape-font-specification:'Kruti Dev 010, ';stroke-width:0.264583" /></text>
    <text
       xml:space="preserve"
       style="font-style:normal;font-variant:normal;font-weight:normal;font-stretch:normal;font-size:10.5833px;line-height:1.25;font-family:'Kruti Dev 010';-inkscape-font-specification:'Kruti Dev 010, ';letter-spacing:0px;word-spacing:0px;fill:#000000;fill-opacity:1;stroke:none;stroke-width:0.264583"
       x="36.955585"
       y="158.40848"
       id="text4840"
       transform="scale(-1,1)" />
    <text
       xml:space="preserve"
       style="font-style:normal;font-weight:normal;font-size:10.5833px;line-height:1.25;font-family:sans-serif;letter-spacing:0px;word-spacing:0px;fill:#000000;fill-opacity:1;stroke:none;stroke-width:0.264583"
       x="32.562199"
       y="178.37843"
       id="text4848"
       transform="scale(-1,1)" />
    <text
       xml:space="preserve"
       style="font-style:normal;font-variant:normal;font-weight:normal;font-stretch:normal;font-size:10.5833px;line-height:1.25;font-family:'Kruti Dev 010';-inkscape-font-specification:'Kruti Dev 010, ';letter-spacing:0px;word-spacing:0px;fill:#000000;fill-opacity:1;stroke:none;stroke-width:0.264583"
       x="-137.63644"
       y="166.29639"
       id="text4910"
       transform="scale(-1,1)" />
    <path
       style="fill:#7137c8;stroke-width:0.576222"
       d=""
       id="path1014"
       transform="matrix(0.26458333,0,0,0.26458333,0,138.24998)" />
    <g
       id="g264"
       transform="matrix(0.94709022,0,0,0.94709022,4.3248374,11.639616)">
      <g
         id="g4828"
         transform="matrix(-1,0,0,1,158.75,0)">
        <path
           transform="matrix(0.26458333,0,0,0.26458333,0,138.24998)"
           id="path4814"
           d="m 533.55664,165.20508 c 10.61713,-6.07935 17.21701,-9.8299 26.11524,-14.91211 A 300,300 0 0 0 449.97266,40.607422 c -5.13395,8.797348 -8.94773,15.301337 -15.0586,25.798828 a 270,270 0 0 1 98.64258,98.79883 z"
           style="fill:#0000d4;stroke-width:2.55045"
           inkscape:connector-curvature="0" />
        <path
           transform="matrix(0.26458333,0,0,0.26458333,0,138.24998)"
           id="path4812"
           d="m 569.99805,300.04492 c 12.18017,0.0436 19.79127,0.0949 29.99609,0.14258 A 300,300 0 0 0 600,300 300,300 0 0 0 559.67188,150.29297 c -8.89823,5.08221 -15.49811,8.83276 -26.11524,14.91211 A 270,270 0 0 1 570,300 a 270,270 0 0 1 -0.002,0.0449 z"
           style="fill:#3771c8;stroke-width:2.55045"
           inkscape:connector-curvature="0" />
        <path
           transform="matrix(0.26458333,0,0,0.26458333,0,138.24998)"
           id="path4810"
           d="m 533.59375,434.91406 c 10.49749,6.11087 17.00148,9.92465 25.79883,15.0586 A 300,300 0 0 0 599.99414,300.1875 c -10.20482,-0.0477 -17.81592,-0.0989 -29.99609,-0.14258 a 270,270 0 0 1 -36.4043,134.86914 z"
           style="fill:#00ccff;stroke-width:2.55045"
           inkscape:connector-curvature="0" />
        <path
           transform="matrix(0.26458333,0,0,0.26458333,0,138.24998)"
           id="path4808"
           d="m 434.79492,533.55664 c 6.07935,10.61713 9.8299,17.21701 14.91211,26.11524 A 300,300 0 0 0 559.39258,449.97266 c -8.79735,-5.13395 -15.30134,-8.94773 -25.79883,-15.0586 a 270,270 0 0 1 -98.79883,98.64258 z"
           style="fill:#00ff66;stroke-width:2.55045"
           inkscape:connector-curvature="0" />
        <path
           transform="matrix(0.26458333,0,0,0.26458333,0,138.24998)"
           id="path4806"
           d="m 299.95508,569.99805 c -0.0436,12.18017 -0.0949,19.79127 -0.14258,29.99609 A 300,300 0 0 0 300,600 300,300 0 0 0 449.70703,559.67188 c -5.08221,-8.89823 -8.83276,-15.49811 -14.91211,-26.11524 A 270,270 0 0 1 300,570 a 270,270 0 0 1 -0.0449,-0.002 z"
           style="fill:#66ff00;stroke-width:2.55045"
           inkscape:connector-curvature="0" />
        <path
           transform="matrix(0.26458333,0,0,0.26458333,0,138.24998)"
           id="path4804"
           d="m 165.08594,533.59375 c -6.11087,10.49749 -9.92465,17.00148 -15.0586,25.79883 a 300,300 0 0 0 149.78516,40.60156 c 0.0477,-10.20482 0.0989,-17.81592 0.14258,-29.99609 a 270,270 0 0 1 -134.86914,-36.4043 z"
           style="fill:#ffcc00;stroke-width:2.55045"
           inkscape:connector-curvature="0" />
        <path
           transform="matrix(0.26458333,0,0,0.26458333,0,138.24998)"
           id="path4802"
           d="m 66.443359,434.79492 c -10.617129,6.07935 -17.217009,9.8299 -26.115234,14.91211 A 300,300 0 0 0 150.02734,559.39258 c 5.13395,-8.79735 8.94773,-15.30134 15.0586,-25.79883 A 270,270 0 0 1 66.443359,434.79492 Z"
           style="fill:#ff6600;stroke-width:2.55045"
           inkscape:connector-curvature="0" />
        <path
           transform="matrix(0.26458333,0,0,0.26458333,0,138.24998)"
           id="path4800"
           d="M 30.001953,299.95508 C 17.821784,299.91144 10.210677,299.86019 0.00585938,299.8125 A 300,300 0 0 0 0,300 300,300 0 0 0 40.328125,449.70703 c 8.898225,-5.08221 15.498105,-8.83276 26.115234,-14.91211 A 270,270 0 0 1 30,300 a 270,270 0 0 1 0.002,-0.0449 z"
           style="fill:#ff2a2a;stroke-width:2.55045"
           inkscape:connector-curvature="0" />
        <path
           transform="matrix(0.26458333,0,0,0.26458333,0,138.24998)"
           id="path4798"
           d="M 66.40625,165.08594 C 55.908759,158.97507 49.40477,155.16129 40.607422,150.02734 A 300,300 0 0 0 0.00585938,299.8125 C 10.210677,299.8602 17.821784,299.9114 30.001953,299.95508 A 270,270 0 0 1 66.40625,165.08594 Z"
           style="fill:#ff0066;stroke-width:2.55045"
           inkscape:connector-curvature="0" />
        <path
           transform="matrix(0.26458333,0,0,0.26458333,0,138.24998)"
           id="path4796"
           d="M 165.20508,66.443359 C 159.12573,55.82623 155.37518,49.22635 150.29297,40.328125 A 300,300 0 0 0 40.607422,150.02734 c 8.797348,5.13395 15.301337,8.94773 25.798828,15.0586 a 270,270 0 0 1 98.79883,-98.642581 z"
           style="fill:#ff00cc;stroke-width:2.55045"
           inkscape:connector-curvature="0" />
        <path
           transform="matrix(0.26458333,0,0,0.26458333,0,138.24998)"
           id="path4794"
           d="M 300.1875,0.00585938 A 300,300 0 0 0 300,0 300,300 0 0 0 150.29297,40.328125 c 5.08221,8.898225 8.83276,15.498105 14.91211,26.115234 A 270,270 0 0 1 300,30 a 270,270 0 0 1 0.0449,0.002 c 0.0436,-12.180169 0.0949,-19.791276 0.14258,-29.99609362 z"
           style="fill:#cc00ff;stroke-width:2.55045"
           inkscape:connector-curvature="0" />
        <path
           transform="matrix(0.26458333,0,0,0.26458333,0,138.24998)"
           id="path10"
           d="M 300.1875,0.00585938 C 300.13981,10.210677 300.08856,17.821784 300.04492,30.001953 A 270,270 0 0 1 434.91406,66.40625 c 6.11087,-10.497491 9.92465,-17.00148 15.0586,-25.798828 A 300,300 0 0 0 300.1875,0.00585938 Z"
           style="fill:#7f2aff;stroke-width:2.55045"
           inkscape:connector-curvature="0" />
      </g>
      <g
         aria-label="वृष-"
         transform="rotate(136.90657)"
         id="text4844"
         style="font-size:5.64444px;line-height:1.25;font-family:'Kruti Dev 010';-inkscape-font-specification:'Kruti Dev 010, ';letter-spacing:0px;word-spacing:0px;stroke-width:0.264583">
        <path
           d="m 87.775923,-290.71604 h -0.587021 v 3.11008 h -0.451556 v -0.93133 q -0.146755,0.1016 -0.361244,0.18627 -0.208844,0.079 -0.507999,0.079 -0.3048,0 -0.541867,-0.11853 -0.237066,-0.11854 -0.378177,-0.32738 -0.135467,-0.21449 -0.135467,-0.50236 0,-0.48542 0.321733,-0.74506 0.327378,-0.25965 0.857955,-0.25965 0.07338,0 0.180622,0.0113 0.112889,0.006 0.214489,0.0169 0.107244,0.0113 0.163689,0.0282 l -0.02822,0.41204 q -0.107245,-0.0226 -0.242711,-0.0395 -0.135467,-0.0169 -0.265289,-0.0169 -0.349955,0 -0.547511,0.1524 -0.197555,0.1524 -0.197555,0.43462 0,0.28787 0.174978,0.42333 0.180622,0.13547 0.434621,0.13547 0.293511,0 0.502356,-0.12418 0.214488,-0.12982 0.355599,-0.28222 v -1.64253 H 84.55295 v -0.40076 h 3.222975 z"
           id="path56" />
        <path
           d="m 87.843655,-286.2908 q -0.141111,0.0734 -0.327377,0.13546 -0.191911,0.0621 -0.423333,0.0621 -0.423333,0 -0.6604,-0.22577 -0.242711,-0.22014 -0.242711,-0.57574 0,-0.31609 0.254,-0.55315 0.248355,-0.23142 0.745066,-0.25965 l 0.03951,0.37254 q -0.327377,0.0395 -0.474133,0.16368 -0.146755,0.12418 -0.146755,0.31045 0,0.19191 0.141111,0.27658 0.141111,0.0903 0.316088,0.0903 0.180623,0 0.316089,-0.0452 0.129822,-0.0395 0.321733,-0.14111 z"
           id="path58" />
        <path
           d="m 91.038408,-291.1168 v 0.40076 h -0.587021 v 3.11008 h -0.4572 v -1.07809 q -0.169333,0.096 -0.378178,0.17498 -0.208844,0.079 -0.491066,0.079 -0.225777,0 -0.412044,-0.0734 -0.180622,-0.079 -0.299155,-0.19756 -0.141111,-0.1524 -0.208845,-0.3556 -0.06773,-0.20884 -0.06773,-0.57009 v -1.08937 h -0.445911 v -0.40076 z m -1.044221,0.40076 h -1.145821 l 1.145821,1.49013 z m -1.236132,1.75542 q 0.129822,0.12982 0.412044,0.12982 0.146755,0 0.287866,-0.0452 0.141111,-0.0451 0.265289,-0.11288 l -1.134533,-1.47885 v 0.77893 q 0,0.23143 0.01693,0.36689 0.01693,0.13547 0.0508,0.22014 0.03951,0.079 0.1016,0.14111 z"
           id="path60" />
        <path
           d="m 91.241603,-287.60596 v -0.37253 h 0.395111 v 0.37253 z"
           id="path62" />
      </g>
      <g
         aria-label="मिथुन-"
         transform="rotate(162.12307)"
         id="text4844-9"
         style="font-size:5.64444px;line-height:1.25;font-family:'Kruti Dev 010';-inkscape-font-specification:'Kruti Dev 010, ';letter-spacing:0px;word-spacing:0px;stroke-width:0.264583">
        <path
           d="m -9.8849606,-308.64671 h -0.5023554 v -0.40075 h 0.4515555 q -0.067733,-0.12418 -0.1128885,-0.25965 -0.03951,-0.14111 -0.03951,-0.31044 0,-0.44591 0.3443104,-0.7112 0.3443109,-0.26529 0.9200438,-0.26529 0.5870218,0 1.0780881,0.19756 0.4967107,0.19755 0.9031104,0.55315 0.4063997,0.3556 0.7224883,0.83538 h -0.4797774 q -0.9595548,-1.17969 -2.1110206,-1.17969 -0.4346219,0 -0.6773328,0.16933 -0.242711,0.16369 -0.242711,0.46285 0,0.16369 0.0508,0.28786 0.056444,0.12418 0.1241777,0.22014 h 0.6095995 v 0.40075 h -0.5813773 v 3.11009 h -0.4571997 z"
           id="path65" />
        <path
           d="m -6.0523921,-308.64671 v 3.11009 h -0.4571997 v -1.41111 h -1.2474213 v 0.20884 q 0,0.18627 -0.084667,0.27094 -0.079022,0.079 -0.1862665,0.079 -0.1072444,0 -0.2257776,-0.0677 -0.1185332,-0.0734 -0.2201332,-0.18063 -0.1015999,-0.11289 -0.1693332,-0.23706 -0.062089,-0.12418 -0.062089,-0.23143 0,-0.1016 0.073378,-0.16933 0.079022,-0.0734 0.2709331,-0.0734 h 0.1467555 v -1.29822 h -0.7111995 v -0.40075 h 3.4543974 v 0.40075 z m -0.4571997,0 h -1.2474213 v 1.29822 h 1.2474213 z"
           id="path67" />
        <path
           d="m -2.4286639,-308.64671 v 3.11009 h -0.4571996 v -1.016 q -0.1636888,0.10724 -0.3894664,0.19191 -0.2257776,0.079 -0.5362218,0.079 -0.4797774,0 -0.8184438,-0.27093 -0.333022,-0.27658 -0.4515553,-0.80151 0.5362219,-0.11289 0.7507106,-0.31045 0.2201332,-0.20319 0.2201332,-0.50799 0,-0.28223 -0.1354666,-0.42334 -0.1298221,-0.14675 -0.3386664,-0.14675 -0.141111,0 -0.2314221,0.0677 -0.090311,0.0677 -0.090311,0.19756 0,0.28786 0.4571996,0.33866 l -0.045155,0.39511 q -0.3668886,-0.0508 -0.5813773,-0.22013 -0.2144887,-0.17498 -0.2144887,-0.50236 0,-0.31608 0.2031998,-0.47413 0.2088443,-0.16369 0.5079996,-0.16369 0.2314221,0 0.4402664,0.1016 0.2144887,0.096 0.3499552,0.29916 0.1354666,0.2032 0.1354666,0.51929 0,0.41769 -0.2257776,0.67733 -0.2257776,0.25964 -0.6434662,0.42333 0.1298221,0.2032 0.2935109,0.3048 0.1636888,0.096 0.4515552,0.096 0.2935109,0 0.5023552,-0.11289 0.2088443,-0.11289 0.3894664,-0.29351 v -1.55787 h -0.4628441 v -0.40075 h 1.5014211 v 0.40075 z"
           id="path69" />
        <path
           d="m -3.3261393,-305.46889 q 0.3047997,-0.12982 0.6321773,-0.12982 0.423333,0 0.6603995,0.21449 0.231422,0.22013 0.231422,0.57573 0,0.34431 -0.2596442,0.56445 -0.2652887,0.22013 -0.7507106,0.22013 -0.5475107,0 -0.9426215,-0.25965 -0.4007552,-0.25964 -0.7394216,-0.68862 l 0.3443108,-0.24271 q 0.2201332,0.27094 0.4176886,0.44591 0.1975554,0.17498 0.423333,0.254 0.2201332,0.0847 0.4967107,0.0847 0.5983107,0 0.5983107,-0.41769 0,-0.18627 -0.1354666,-0.27658 -0.141111,-0.0903 -0.3160886,-0.0903 -0.1523999,0 -0.2709332,0.0282 -0.1241776,0.0339 -0.2427109,0.096 z"
           id="path71" />
        <path
           d="m -1.9263182,-309.04746 h 3.2116865 v 0.40075 H 0.70399095 v 3.11009 H 0.2467913 v -1.68204 h -1.02164367 v 0.3048 q 0,0.15804 -0.0790222,0.23706 -0.0790222,0.079 -0.20884423,0.079 -0.1354666,0 -0.2878665,-0.11853 -0.1523999,-0.11853 -0.2596442,-0.28787 -0.1072444,-0.16933 -0.1072444,-0.32737 0,-0.12983 0.073378,-0.20885 0.079022,-0.079 0.2709332,-0.079 h 1.61995427 v -1.02729 H -1.9263179 Z"
           id="path73" />
        <path
           d="m 1.4942034,-305.53662 v -0.37253 h 0.3951108 v 0.37253 z"
           id="path75" />
      </g>
      <path
         style="fill:#7137c8;stroke-width:0.576222"
         d="m 60.170127,160.8651 c -9.285551,-5.14437 -17.951052,-10.43614 -18.214737,-11.12321 -0.697573,-1.81766 15.884966,-25.86753 28.290119,-41.02952 5.748945,-7.02655 5.817897,-7.08619 5.995391,-5.186 0.09876,1.05727 0.687313,2.31624 1.307899,2.79772 1.088589,0.84456 0.985843,1.04383 -2.916616,5.65656 -2.224725,2.62963 -4.044954,5.00786 -4.044954,5.28497 0,1.46926 1.532327,1.01518 3.676948,-1.08961 2.351885,-2.3082 4.326493,-3.38207 2.507588,-1.36372 -1.149097,1.27509 -1.78409,3.76275 -1.3276,5.20102 0.353728,1.1145 2.566341,2.43392 4.081572,2.43392 0.449444,0 1.726017,-0.79797 2.83683,-1.77328 2.069302,-1.81687 3.206442,-1.82461 3.206442,-0.0218 0,1.21586 2.312463,3.52377 3.530721,3.52377 1.154608,0 3.960168,-2.98194 3.960168,-4.20914 0,-1.37283 -2.121621,-1.24353 -2.881111,0.17559 -0.820995,1.53404 -1.728667,1.46406 -1.728667,-0.13327 0,-0.85909 -1.460828,-2.65037 -4.402487,-5.39837 -4.027453,-3.76231 -4.92593,-5.43205 -2.91034,-5.40861 0.377449,0.005 2.35968,1.43054 4.404959,3.16923 3.79972,3.23012 4.821532,3.6842 5.568989,2.4748 0.264797,-0.42846 -1.075967,-2.08112 -3.567383,-4.39727 -2.977215,-2.76778 -3.991627,-4.09432 -3.991627,-5.21984 0,-1.10788 -0.268052,-1.47071 -1.008389,-1.36495 -0.554614,0.0792 -1.462039,0.20888 -2.0165,0.28811 -0.648417,0.0926 -1.070577,-0.29313 -1.183188,-1.08123 -0.330129,-2.31039 8.292892,-8.128607 8.982233,-6.060585 0.120873,0.362621 0.725885,0.659311 1.34447,0.659311 0.618584,0 1.791581,0.436959 2.60666,0.971019 1.374167,0.90039 1.408858,1.024474 0.476929,1.705915 -0.85787,0.62729 -1.168336,0.52729 -2.12028,-0.682905 -0.637604,-0.810583 -1.714302,-1.417806 -2.513979,-1.417806 -3.623847,0 -5.042258,5.266501 -1.830901,6.798041 1.090651,0.52015 1.584612,1.19499 1.584612,2.16485 0,2.18404 2.097826,1.86747 3.07223,-0.46361 0.430544,-1.03 1.254935,-2.26168 1.83198,-2.73706 0.973516,-0.802 1.024341,-0.76045 0.704823,0.57622 -1.114156,4.66097 -1.134421,5.74653 -0.114582,6.13788 0.633171,0.24297 1.272273,0.03 1.711122,-0.57014 0.385261,-0.52687 1.153059,-0.95796 1.706215,-0.95796 0.553157,0 1.776138,-0.64825 2.717743,-1.44055 0.941601,-0.79231 2.081051,-1.44056 2.532131,-1.44056 2.009,0 0.54816,-2.45698 -3.789661,-6.373819 -2.535378,-2.289312 -4.609779,-4.535578 -4.609779,-4.991698 0,-0.98763 3.933563,-5.921151 4.721013,-5.921151 0.30175,0 0.01124,0.683219 -0.645634,1.518265 -1.415577,1.799613 -1.561694,4.946658 -0.288775,6.219577 1.391883,1.391883 4.433316,1.142362 5.966356,-0.489485 1.05258,-1.120417 1.69612,-1.332402 3.26966,-1.07705 2.61133,0.42376 2.59125,-0.722809 -0.0576,-3.290195 -1.10923,-1.075106 -2.01678,-2.27752 -2.01678,-2.67203 0,-1.554682 1.37279,-1.430269 2.96022,0.26828 0.99415,1.063739 2.01309,1.651857 2.52295,1.456207 1.14291,-0.438573 1.08483,-0.847266 -0.44122,-3.105253 -1.80584,-2.671953 -4.01353,-3.167967 -6.13921,-1.379326 -1.43353,1.206242 -1.74385,1.27673 -2.35877,0.535796 -0.58028,-0.699194 -0.3843,-1.221933 1.08587,-2.896365 1.79444,-2.043762 2.17345,-3.151839 1.36177,-3.981336 -0.23769,-0.242911 -3.41411,2.698467 -7.058718,6.536395 -6.224293,6.554451 -6.801453,7.010255 -9.507668,7.508554 -1.584611,0.291776 -3.399711,0.697715 -4.033556,0.902085 -1.661802,0.535814 15.476997,-16.118498 23.593242,-22.926298 16.1427,-13.54028 42.1404,-31.484255 43.50829,-30.030026 0.26711,0.283971 3.54951,5.809812 7.29421,12.279645 6.20527,10.721021 6.71613,11.818753 5.76549,12.388779 -13.08886,7.848417 -29.7716,19.979385 -40.82829,29.688579 -19.09983,16.77208 -35.866026,36.25805 -50.024862,58.13977 -3.310189,5.11571 -6.148176,9.30144 -6.306637,9.30162 -0.158461,1.7e-4 -2.771757,-1.37568 -5.807324,-3.05743 z"
         id="path1092"
         transform="matrix(0.26458333,0,0,0.26458333,0,138.24998)" />
      <g
         aria-label="वृश्चिक"
         transform="rotate(-49.259408)"
         id="text4844-96"
         style="font-size:5.64444px;line-height:1.25;font-family:'Kruti Dev 010';-inkscape-font-specification:'Kruti Dev 010, ';letter-spacing:0px;word-spacing:0px;stroke-width:0.264583">
        <path
           d="m -112.77085,125.08086 h -0.58702 v 3.11009 h -0.45156 v -0.93133 q -0.14675,0.1016 -0.36124,0.18626 -0.20885,0.079 -0.508,0.079 -0.3048,0 -0.54187,-0.11853 -0.23707,-0.11853 -0.37818,-0.32738 -0.13546,-0.21448 -0.13546,-0.50235 0,-0.48542 0.32173,-0.74507 0.32738,-0.25964 0.85795,-0.25964 0.0734,0 0.18063,0.0113 0.11289,0.006 0.21449,0.0169 0.10724,0.0113 0.16368,0.0282 l -0.0282,0.41205 q -0.10724,-0.0226 -0.24271,-0.0395 -0.13547,-0.0169 -0.26529,-0.0169 -0.34995,0 -0.54751,0.1524 -0.19755,0.1524 -0.19755,0.43462 0,0.28787 0.17497,0.42334 0.18063,0.13546 0.43463,0.13546 0.29351,0 0.50235,-0.12417 0.21449,-0.12983 0.3556,-0.28223 v -1.64253 h -2.1844 v -0.40075 h 3.22298 z"
           id="path78" />
        <path
           d="m -112.70312,129.5061 q -0.14111,0.0734 -0.32738,0.13547 -0.19191,0.0621 -0.42333,0.0621 -0.42333,0 -0.6604,-0.22578 -0.24271,-0.22013 -0.24271,-0.57573 0,-0.31609 0.254,-0.55316 0.24835,-0.23142 0.74506,-0.25964 l 0.0395,0.37253 q -0.32738,0.0395 -0.47414,0.16369 -0.14675,0.12418 -0.14675,0.31044 0,0.19192 0.14111,0.27658 0.14111,0.0903 0.31609,0.0903 0.18062,0 0.31609,-0.0452 0.12982,-0.0395 0.32173,-0.14111 z"
           id="path80" />
        <path
           d="m -112.35317,125.08086 h -0.50235 v -0.40075 h 0.45155 q -0.0677,-0.12418 -0.11288,-0.25965 -0.0395,-0.14111 -0.0395,-0.31609 0,-0.45155 0.37818,-0.7112 0.37818,-0.25964 1.02729,-0.25964 0.70556,0 1.28693,0.2032 0.58138,0.19756 1.04422,0.55316 0.46849,0.35559 0.82409,0.82973 h -0.50235 q -0.55316,-0.58138 -1.19098,-0.88053 -0.63218,-0.29916 -1.33209,-0.29916 -0.51929,0 -0.80151,0.16369 -0.27658,0.16369 -0.27658,0.47978 0,0.15804 0.0508,0.28222 0.0565,0.11853 0.12418,0.21449 h 0.6096 v 0.40075 h -0.58138 v 3.11009 h -0.4572 z"
           id="path82" />
        <path
           d="m -107.96744,125.08086 v 3.88338 h -0.4572 v -0.44591 q -0.28787,0.20884 -0.68862,0.20884 -0.36125,0 -0.61525,-0.22578 -0.24835,-0.22577 -0.24835,-0.6096 l -0.54751,0.38383 -0.26529,-0.37818 1.54658,-0.92569 0.19191,0.34431 -0.19756,0.12982 q -0.15804,0.1016 -0.22013,0.21449 -0.0621,0.11289 -0.0621,0.25965 0,0.23142 0.13547,0.32173 0.13546,0.096 0.28222,0.096 0.23142,0 0.40075,-0.10724 0.16934,-0.1016 0.28787,-0.25964 v -1.17969 q -0.39511,-0.0282 -0.80151,-0.12982 -0.4064,-0.10725 -0.71685,-0.24272 -0.24271,0.15805 -0.50235,0.32174 -0.254,0.15804 -0.51929,0.31044 l -0.27093,-0.38382 q 0.23142,-0.11289 0.44591,-0.23142 0.22013,-0.12418 0.42898,-0.24271 -0.29916,-0.21449 -0.41769,-0.41769 -0.11289,-0.2032 -0.11289,-0.42333 0,-0.29916 0.23706,-0.51365 0.24272,-0.21449 0.65476,-0.21449 0.37253,0 0.61524,0.20885 0.24271,0.2032 0.24271,0.53622 0,0.24271 -0.12982,0.44026 -0.12417,0.19192 -0.32173,0.34432 0.46849,0.18062 1.1684,0.22577 v -1.29822 h -0.36125 v -0.40075 h 1.39983 v 0.40075 z m -2.02636,0.89182 q 0.18627,-0.12417 0.28787,-0.27657 0.10725,-0.1524 0.10725,-0.32738 0,-0.19191 -0.11289,-0.28222 -0.11289,-0.0903 -0.3048,-0.0903 -0.16369,0 -0.29916,0.096 -0.12982,0.096 -0.12982,0.29351 0,0.13547 0.096,0.28787 0.096,0.1524 0.3556,0.29915 z"
           id="path84" />
        <path
           d="m -103.07936,125.08086 h -1.83444 v 1.14018 q 0.27093,-0.28222 0.66039,-0.28222 0.36689,0 0.59832,0.23706 0.23142,0.23143 0.23142,0.66605 0,0.25964 -0.0847,0.55315 -0.0847,0.29351 -0.28222,0.57574 l -0.4064,-0.23143 q 0.14111,-0.18062 0.23142,-0.41769 0.0903,-0.23706 0.0903,-0.46848 0,-0.26529 -0.11289,-0.39511 -0.10724,-0.12983 -0.3048,-0.12983 -0.3048,0 -0.62088,0.4064 v 1.45627 h -0.4572 v -0.98213 q -0.13547,0.11288 -0.33867,0.21448 -0.19756,0.1016 -0.47978,0.1016 -0.26529,0 -0.50235,-0.10724 -0.23143,-0.10724 -0.37254,-0.32173 -0.14111,-0.22014 -0.14111,-0.54187 0,-0.45155 0.31045,-0.71684 0.31044,-0.26529 0.80715,-0.26529 0.12982,0 0.28787,0.0226 0.16369,0.0169 0.24835,0.0339 l -0.0339,0.41205 q -0.0903,-0.0226 -0.23143,-0.0395 -0.13546,-0.0169 -0.24271,-0.0169 -0.32737,0 -0.508,0.14676 -0.18062,0.14675 -0.18062,0.41204 0,0.29916 0.16934,0.44591 0.17497,0.14111 0.40075,0.14111 0.24836,0 0.44027,-0.11853 0.19755,-0.11853 0.36689,-0.28787 v -1.64253 h -2.09409 v -0.40075 h 4.38573 z"
           id="path86" />
      </g>
      <g
         aria-label="कर्क-"
         transform="rotate(-161.82948)"
         id="text4844-3"
         style="font-size:5.64444px;line-height:1.25;font-family:'Kruti Dev 010';-inkscape-font-specification:'Kruti Dev 010, ';letter-spacing:0px;word-spacing:0px;stroke-width:0.264583">
        <path
           d="m -145.62367,-258.48066 h -1.83444 v 1.14018 q 0.27093,-0.28223 0.6604,-0.28223 0.36689,0 0.59831,0.23707 0.23142,0.23142 0.23142,0.66604 0,0.25965 -0.0847,0.55316 -0.0847,0.29351 -0.28222,0.57573 l -0.4064,-0.23142 q 0.14111,-0.18062 0.23142,-0.41769 0.0903,-0.23707 0.0903,-0.46849 0,-0.26529 -0.11288,-0.39511 -0.10725,-0.12982 -0.3048,-0.12982 -0.3048,0 -0.62089,0.4064 v 1.45627 h -0.4572 v -0.98214 q -0.13547,0.11289 -0.33867,0.21449 -0.19755,0.1016 -0.47978,0.1016 -0.26528,0 -0.50235,-0.10724 -0.23142,-0.10725 -0.37253,-0.32174 -0.14112,-0.22013 -0.14112,-0.54186 0,-0.45156 0.31045,-0.71685 0.31044,-0.26529 0.80715,-0.26529 0.12983,0 0.28787,0.0226 0.16369,0.0169 0.24836,0.0339 l -0.0339,0.41204 q -0.0903,-0.0226 -0.23142,-0.0395 -0.13547,-0.0169 -0.24271,-0.0169 -0.32738,0 -0.508,0.14675 -0.18063,0.14676 -0.18063,0.41205 0,0.29915 0.16934,0.44591 0.17498,0.14111 0.40075,0.14111 0.24836,0 0.44027,-0.11853 0.19755,-0.11854 0.36689,-0.28787 v -1.64253 h -2.09409 v -0.40076 h 4.38573 z"
           id="path89" />
        <path
           d="m -141.32261,-258.48066 h -1.83444 v 1.14018 q 0.27093,-0.28223 0.6604,-0.28223 0.36688,0 0.59831,0.23707 0.23142,0.23142 0.23142,0.66604 0,0.25965 -0.0847,0.55316 -0.0847,0.29351 -0.28222,0.57573 l -0.4064,-0.23142 q 0.14111,-0.18062 0.23142,-0.41769 0.0903,-0.23707 0.0903,-0.46849 0,-0.26529 -0.11289,-0.39511 -0.10724,-0.12982 -0.3048,-0.12982 -0.3048,0 -0.62088,0.4064 v 1.45627 h -0.4572 v -0.98214 q -0.13547,0.11289 -0.33867,0.21449 -0.19756,0.1016 -0.47978,0.1016 -0.26529,0 -0.50235,-0.10724 -0.23142,-0.10725 -0.37254,-0.32174 -0.14111,-0.22013 -0.14111,-0.54186 0,-0.45156 0.31045,-0.71685 0.31044,-0.26529 0.80715,-0.26529 0.12982,0 0.28787,0.0226 0.16369,0.0169 0.24835,0.0339 l -0.0339,0.41204 q -0.0903,-0.0226 -0.23142,-0.0395 -0.13547,-0.0169 -0.24272,-0.0169 -0.32737,0 -0.508,0.14675 -0.18062,0.14676 -0.18062,0.41205 0,0.29915 0.16934,0.44591 0.17497,0.14111 0.40075,0.14111 0.24836,0 0.44027,-0.11853 0.19755,-0.11854 0.36689,-0.28787 v -1.64253 h -2.09409 v -0.40076 h 4.38573 z"
           id="path91" />
        <path
           d="m -143.72714,-258.84191 q -0.11853,-0.19755 -0.19756,-0.41204 -0.0847,-0.21449 -0.0847,-0.41769 0,-0.37818 0.254,-0.56444 0.24835,-0.19191 0.62089,-0.19191 0.18062,0 0.33302,0.0395 0.1524,0.0339 0.26529,0.096 l -0.12418,0.37254 q -0.096,-0.0508 -0.2032,-0.0847 -0.10725,-0.0339 -0.23142,-0.0339 -0.22578,0 -0.34431,0.12983 -0.11854,0.12417 -0.11854,0.32173 0,0.18626 0.079,0.36689 0.0734,0.17497 0.21449,0.37817 z"
           id="path93" />
        <path
           d="m -141.11942,-255.37057 v -0.37254 h 0.39511 v 0.37254 z"
           id="path95" />
      </g>
      <g
         aria-label="सिह-"
         transform="rotate(-136.82932)"
         id="text4886"
         style="font-size:5.64444px;line-height:1.25;font-family:'Kruti Dev 010';-inkscape-font-specification:'Kruti Dev 010, ';letter-spacing:0px;word-spacing:0px;stroke-width:0.264583">
        <path
           d="m -207.26733,-180.42547 h -0.50235 v -0.40076 h 0.45155 q -0.0677,-0.12417 -0.11289,-0.25964 -0.0395,-0.14111 -0.0395,-0.31609 0,-0.44591 0.36125,-0.70555 0.36124,-0.26529 0.97648,-0.26529 0.64347,0 1.17969,0.19755 0.53622,0.19756 0.97085,0.5588 0.44026,0.3556 0.77893,0.82974 h -0.49107 q -0.51364,-0.58138 -1.10066,-0.88054 -0.58138,-0.29915 -1.2192,-0.29915 -0.47978,0 -0.73942,0.16933 -0.25965,0.16369 -0.25965,0.46849 0,0.15804 0.0508,0.28222 0.0564,0.12418 0.12418,0.22013 h 0.6096 v 0.40076 h -0.58138 v 3.11009 h -0.4572 z"
           id="path98" />
        <path
           d="m -202.99449,-180.42547 v 3.11009 h -0.4572 v -1.50142 q -0.16369,0.0508 -0.32738,0.0677 -0.16369,0.0169 -0.38382,0.0169 -0.23707,0 -0.50236,-0.0395 -0.25964,-0.0452 -0.44591,-0.10724 -0.11289,0.0734 -0.254,0.13546 0.23142,0.29351 0.54187,0.60396 0.31609,0.31044 0.6604,0.58702 l -0.3048,0.3048 q -0.31609,-0.27658 -0.59831,-0.5588 -0.27658,-0.28222 -0.49107,-0.53058 -0.21449,-0.24835 -0.33867,-0.42333 -0.12417,-0.17498 -0.15804,-0.27658 -0.0282,-0.1016 -0.0282,-0.19755 0,-0.10725 0.0847,-0.2032 0.0847,-0.096 0.27658,-0.096 0.14111,0 0.24271,0.0677 0.10725,0.0621 0.19191,0.17498 0.11854,-0.10724 0.15805,-0.27093 0.0451,-0.16933 0.0451,-0.33867 0,-0.16933 -0.0282,-0.3048 -0.0226,-0.13546 -0.0621,-0.22013 h -1.13453 v -0.40076 h 3.90031 v 0.40076 z m -1.23049,1.29258 q 0.22013,0 0.40075,-0.0226 0.18063,-0.0226 0.37254,-0.0734 v -1.19662 h -1.27 q 0.0395,0.096 0.0677,0.22578 0.0282,0.12982 0.0282,0.29915 0,0.23707 -0.0564,0.41205 -0.0508,0.17497 -0.14676,0.29351 0.29351,0.0621 0.60396,0.0621 z"
           id="path100" />
        <path
           d="m -200.68028,-177.70485 q 0.2032,-0.0621 0.33302,-0.16369 0.12982,-0.1016 0.12982,-0.28222 0,-0.21449 -0.16369,-0.33302 -0.16368,-0.12418 -0.53057,-0.12418 -0.38947,0 -0.59831,0.16369 -0.2032,0.15804 -0.2032,0.42898 0,0.17497 0.0621,0.33866 0.0677,0.16369 0.26528,0.36125 0.2032,0.2032 0.59831,0.50235 l -0.30479,0.29916 q -0.51365,-0.40076 -0.79587,-0.75071 -0.27658,-0.34996 -0.27658,-0.78458 0,-0.21449 0.0847,-0.37818 0.0903,-0.16933 0.23706,-0.28787 -0.10724,-0.10159 -0.18626,-0.24835 -0.0734,-0.14676 -0.0734,-0.33867 0,-0.15804 0.0564,-0.27093 0.0565,-0.11289 0.1524,-0.18627 0.12983,-0.0959 0.29352,-0.13546 0.16933,-0.0452 0.40075,-0.0452 h 0.74507 v -0.48542 h -2.03765 v -0.40076 h 3.08187 v 0.40076 h -0.58702 v 0.88618 h -1.19662 q -0.17498,0 -0.24836,0.0169 -0.0734,0.0169 -0.12418,0.0564 -0.0847,0.0677 -0.0847,0.19192 0,0.11288 0.0564,0.2032 0.0564,0.0847 0.13547,0.1524 0.26529,-0.0903 0.57008,-0.0903 0.38947,0 0.63218,0.11854 0.24836,0.11853 0.36125,0.31044 0.11853,0.18627 0.11853,0.40076 0,0.32737 -0.19191,0.54186 -0.19191,0.21449 -0.5588,0.31045 z"
           id="path102" />
        <path
           d="m -199.20709,-177.31538 v -0.37254 h 0.39511 v 0.37254 z"
           id="path104" />
      </g>
      <g
         aria-label="कन्या-"
         transform="rotate(-107.08805)"
         id="text4890"
         style="font-size:5.64444px;line-height:1.25;font-family:'Kruti Dev 010';-inkscape-font-specification:'Kruti Dev 010, ';letter-spacing:0px;word-spacing:0px;stroke-width:0.264583">
        <path
           d="m -229.78636,-65.344992 h -1.83444 v 1.140177 q 0.27093,-0.282222 0.6604,-0.282222 0.36689,0 0.59831,0.237067 0.23142,0.231422 0.23142,0.666044 0,0.259644 -0.0847,0.553155 -0.0847,0.293511 -0.28222,0.575733 l -0.4064,-0.231422 q 0.14111,-0.180623 0.23142,-0.417689 0.0903,-0.237067 0.0903,-0.468489 0,-0.265288 -0.11289,-0.39511 -0.10725,-0.129823 -0.3048,-0.129823 -0.3048,0 -0.62089,0.4064 v 1.456266 h -0.4572 v -0.982133 q -0.13547,0.112889 -0.33867,0.214489 -0.19755,0.1016 -0.47978,0.1016 -0.26528,0 -0.50235,-0.107245 -0.23142,-0.107244 -0.37253,-0.321733 -0.14111,-0.220133 -0.14111,-0.541866 0,-0.451555 0.31044,-0.716844 0.31044,-0.265288 0.80715,-0.265288 0.12983,0 0.28787,0.02258 0.16369,0.01693 0.24836,0.03387 l -0.0339,0.412044 q -0.0903,-0.02258 -0.23142,-0.03951 -0.13547,-0.01693 -0.24271,-0.01693 -0.32738,0 -0.508,0.146755 -0.18062,0.146756 -0.18062,0.412044 0,0.299156 0.16933,0.445911 0.17498,0.141111 0.40075,0.141111 0.24836,0 0.44027,-0.118533 0.19756,-0.118533 0.36689,-0.287867 v -1.642532 h -2.09409 v -0.400755 h 4.38573 z"
           id="path107" />
        <path
           d="m -229.87103,-65.745747 h 2.10538 v 0.400755 h -2.10538 z m 1.15147,1.828799 v 0.304799 q 0,0.158045 -0.079,0.237067 -0.079,0.07902 -0.20884,0.07902 -0.13547,0 -0.28787,-0.118533 -0.1524,-0.118533 -0.25964,-0.287867 -0.10725,-0.169333 -0.10725,-0.327377 0,-0.129822 0.0734,-0.208845 0.079,-0.07902 0.27093,-0.07902 h 1.61996 v 0.400756 z"
           id="path109" />
        <path
           d="m -224.84749,-65.745747 v 0.400755 h -0.58702 v 3.110087 h -0.4572 v -1.010355 q -0.15804,0.1016 -0.37818,0.186266 -0.22013,0.07902 -0.508,0.07902 -0.508,0 -0.82409,-0.338667 -0.31044,-0.344311 -0.38946,-0.908755 0.34995,-0.07338 0.51929,-0.203199 0.16933,-0.135467 0.16933,-0.383822 0,-0.158045 -0.0677,-0.293511 -0.0621,-0.135467 -0.14111,-0.237067 h -0.69427 v -0.400755 z m -2.63031,1.811865 q 0.11289,0.276578 0.28222,0.417689 0.17498,0.135466 0.45156,0.135466 0.28222,0 0.49107,-0.118533 0.20884,-0.118533 0.36124,-0.282222 v -1.56351 h -1.12324 q 0.16368,0.293511 0.16368,0.598311 0,0.609599 -0.62653,0.812799 z"
           id="path111" />
        <path
           d="m -223.9726,-65.344992 v 3.110087 h -0.4572 v -3.110087 h -0.50236 v -0.400755 h 1.54094 v 0.400755 z"
           id="path113" />
        <path
           d="m -223.18239,-62.234905 v -0.372533 h 0.39512 v 0.372533 z"
           id="path115" />
      </g>
      <g
         aria-label="तुला-"
         transform="rotate(-77.113188)"
         id="text4894"
         style="font-size:5.64444px;line-height:1.25;font-family:'Kruti Dev 010';-inkscape-font-specification:'Kruti Dev 010, ';letter-spacing:0px;word-spacing:0px;stroke-width:0.264583">
        <path
           d="m -193.88338,48.677057 v 3.110087 h -0.4572 v -1.851377 h -0.61525 q -0.34431,0 -0.51928,0.03387 -0.16934,0.03387 -0.27658,0.129822 -0.13547,0.107244 -0.13547,0.349955 0,0.276578 0.20885,0.536222 0.20884,0.254 0.6096,0.575733 l -0.3048,0.293511 q -0.25965,-0.225778 -0.48543,-0.451555 -0.22013,-0.225778 -0.3556,-0.468489 -0.12982,-0.242711 -0.12982,-0.513644 0,-0.197555 0.0734,-0.3556 0.079,-0.158044 0.19755,-0.259644 0.16369,-0.141111 0.39512,-0.2032 0.23142,-0.06773 0.61524,-0.06773 h 0.72249 v -0.857955 h -2.25778 v -0.400755 h 3.29635 v 0.400755 z"
           id="path118" />
        <path
           d="m -194.78085,51.854877 q 0.3048,-0.129822 0.63218,-0.129822 0.42333,0 0.6604,0.214489 0.23142,0.220133 0.23142,0.575732 0,0.344311 -0.25965,0.564445 -0.26528,0.220133 -0.75071,0.220133 -0.54751,0 -0.94262,-0.259645 -0.40075,-0.259644 -0.73942,-0.688621 l 0.34431,-0.242711 q 0.22013,0.270933 0.41769,0.445911 0.19756,0.174977 0.42333,0.253999 0.22014,0.08467 0.49671,0.08467 0.59831,0 0.59831,-0.417689 0,-0.186266 -0.13546,-0.276577 -0.14111,-0.09031 -0.31609,-0.09031 -0.1524,0 -0.27093,0.02822 -0.12418,0.03387 -0.24271,0.09596 z"
           id="path120" />
        <path
           d="m -193.38103,48.677057 v -0.400755 h 3.9116 v 0.400755 h -0.58702 v 3.110087 h -0.4572 v -2.003777 q -0.0339,-0.0056 -0.079,-0.0056 -0.13546,0 -0.27657,0.06773 -0.14111,0.06773 -0.27094,0.248356 -0.12982,0.174977 -0.23142,0.519288 l -0.43462,-0.135466 q 0.0677,-0.259645 0.18062,-0.4572 -0.13546,-0.1016 -0.27093,-0.163689 -0.13547,-0.06209 -0.3048,-0.06209 -0.22578,0 -0.34996,0.129822 -0.11853,0.129823 -0.11853,0.333022 0,0.214489 0.11853,0.412045 0.12418,0.191911 0.3556,0.406399 0.23143,0.208845 0.5588,0.485422 l -0.3048,0.293511 q -0.32737,-0.282222 -0.59831,-0.536222 -0.27093,-0.259644 -0.42897,-0.519288 -0.15805,-0.265289 -0.15805,-0.564444 0,-0.299156 0.13547,-0.485422 0.14111,-0.191911 0.34995,-0.276578 0.20885,-0.09031 0.41205,-0.09031 0.24835,0 0.45155,0.08467 0.20885,0.07902 0.39511,0.231422 0.32738,-0.316089 0.81845,-0.316089 0.0282,0 0.0508,0 v -0.705555 z"
           id="path122" />
        <path
           d="m -188.59455,48.677057 v 3.110087 h -0.4572 v -3.110087 h -0.50235 v -0.400755 h 1.54093 v 0.400755 z"
           id="path125" />
        <path
           d="m -187.80433,51.787144 v -0.372533 h 0.39511 v 0.372533 z"
           id="path127" />
      </g>
      <g
         aria-label="धनु"
         transform="rotate(-13.126972)"
         id="text4898"
         style="font-size:5.64444px;line-height:1.25;font-family:'Kruti Dev 010';-inkscape-font-specification:'Kruti Dev 010, ';letter-spacing:0px;word-spacing:0px;stroke-width:0.264583">
        <path
           d="m 20.880258,152.88556 h -0.587022 v 3.11009 h -0.457199 v -0.84666 q -0.174978,0.11288 -0.383822,0.19191 -0.2032,0.0734 -0.530578,0.0734 -0.434622,0 -0.705555,-0.22577 -0.265288,-0.23143 -0.265288,-0.6096 0,-0.1524 0.0508,-0.29351 0.0508,-0.14112 0.158044,-0.254 -0.265289,-0.1016 -0.434622,-0.29916 -0.163689,-0.2032 -0.163689,-0.51929 0,-0.33866 0.231422,-0.5588 0.231422,-0.22577 0.587022,-0.22577 0.299155,0 0.496711,0.15804 0.2032,0.15804 0.2032,0.41204 0,0.26529 -0.225778,0.49671 l -0.344311,-0.22013 q 0.06209,-0.0564 0.08467,-0.11853 0.02822,-0.0677 0.02822,-0.12982 0,-0.0847 -0.05644,-0.15805 -0.05645,-0.079 -0.2032,-0.079 -0.158045,0 -0.270933,0.12418 -0.112889,0.12417 -0.112889,0.32173 0,0.18062 0.08467,0.29351 0.09031,0.10725 0.225778,0.15805 0.141111,0.0508 0.293511,0.0677 0.169333,-0.0452 0.366888,-0.0452 0.06209,0 0.135467,0.006 0.07902,0.006 0.118533,0.0113 l -0.03951,0.39511 q -0.03387,-0.006 -0.08467,-0.006 -0.04516,0 -0.07338,0 -0.282222,0 -0.445911,0.11854 -0.158044,0.11288 -0.158044,0.32737 0,0.23143 0.158044,0.34431 0.163689,0.11289 0.412044,0.11289 0.299156,0 0.508,-0.11853 0.208844,-0.12418 0.3556,-0.28787 v -1.7272 h -0.349956 v -0.40075 h 1.394177 z"
           id="path130" />
        <path
           d="m 20.79559,152.48481 h 3.211687 v 0.40075 h -0.581378 v 3.11009 H 22.9687 v -1.68204 h -1.021644 v 0.3048 q 0,0.15804 -0.07902,0.23706 -0.07902,0.079 -0.208844,0.079 -0.135467,0 -0.287867,-0.11854 -0.1524,-0.11853 -0.259644,-0.28786 -0.107245,-0.16934 -0.107245,-0.32738 0,-0.12982 0.07338,-0.20885 0.07902,-0.079 0.270933,-0.079 H 22.9687 v -1.02729 h -2.17311 z"
           id="path132" />
        <path
           d="m 22.528424,156.06338 q 0.3048,-0.12982 0.632178,-0.12982 0.423333,0 0.660399,0.21449 0.231422,0.22013 0.231422,0.57573 0,0.34431 -0.259644,0.56445 -0.265289,0.22013 -0.750711,0.22013 -0.54751,0 -0.942621,-0.25964 -0.400755,-0.25965 -0.739422,-0.68862 l 0.344311,-0.24272 q 0.220133,0.27094 0.417689,0.44592 0.197555,0.17497 0.423333,0.25399 0.220133,0.0847 0.49671,0.0847 0.598311,0 0.598311,-0.41769 0,-0.18626 -0.135466,-0.27657 -0.141111,-0.0903 -0.316089,-0.0903 -0.1524,0 -0.270933,0.0282 -0.124178,0.0339 -0.242711,0.096 z"
           id="path134" />
      </g>
      <g
         aria-label="मकर"
         transform="rotate(16.754406)"
         id="text4902"
         style="font-size:5.64444px;line-height:1.25;font-family:'Kruti Dev 010';-inkscape-font-specification:'Kruti Dev 010, ';letter-spacing:0px;word-spacing:0px;stroke-width:0.264583">
        <path
           d="m 139.3695,108.2772 v 3.11008 h -0.4572 v -1.41111 h -1.24743 v 0.20885 q 0,0.18626 -0.0847,0.27093 -0.079,0.079 -0.18627,0.079 -0.10724,0 -0.22578,-0.0677 -0.11853,-0.0734 -0.22013,-0.18062 -0.1016,-0.11289 -0.16933,-0.23707 -0.0621,-0.12418 -0.0621,-0.23142 0,-0.1016 0.0734,-0.16933 0.079,-0.0734 0.27093,-0.0734 h 0.14675 v -1.29822 h -0.71119 v -0.40076 h 3.45439 v 0.40076 z m -0.4572,0 h -1.24743 v 1.29822 h 1.24743 z"
           id="path137" />
        <path
           d="m 144.25758,108.2772 h -1.83444 v 1.14017 q 0.27093,-0.28222 0.66039,-0.28222 0.36689,0 0.59832,0.23707 0.23142,0.23142 0.23142,0.66604 0,0.25965 -0.0847,0.55316 -0.0847,0.29351 -0.28222,0.57573 l -0.4064,-0.23142 q 0.14111,-0.18062 0.23142,-0.41769 0.0903,-0.23707 0.0903,-0.46849 0,-0.26529 -0.11289,-0.39511 -0.10724,-0.12982 -0.3048,-0.12982 -0.3048,0 -0.62088,0.4064 v 1.45626 h -0.4572 v -0.98213 q -0.13547,0.11289 -0.33867,0.21449 -0.19756,0.1016 -0.47978,0.1016 -0.26529,0 -0.50235,-0.10724 -0.23143,-0.10725 -0.37254,-0.32174 -0.14111,-0.22013 -0.14111,-0.54186 0,-0.45156 0.31045,-0.71685 0.31044,-0.26529 0.80715,-0.26529 0.12982,0 0.28787,0.0226 0.16369,0.0169 0.24835,0.0339 l -0.0339,0.41204 q -0.0903,-0.0226 -0.23143,-0.0395 -0.13546,-0.0169 -0.24271,-0.0169 -0.32737,0 -0.508,0.14675 -0.18062,0.14676 -0.18062,0.41205 0,0.29915 0.16934,0.44591 0.17497,0.14111 0.40075,0.14111 0.24836,0 0.44027,-0.11853 0.19755,-0.11854 0.36689,-0.28787 v -1.64253 h -2.09409 v -0.40076 h 4.38573 z"
           id="path139" />
        <path
           d="m 146.40246,111.15022 -0.3048,0.3048 q -0.33302,-0.27658 -0.62653,-0.5588 -0.29351,-0.28222 -0.51929,-0.53058 -0.22578,-0.24836 -0.3556,-0.42333 -0.12418,-0.17498 -0.16369,-0.27658 -0.0339,-0.1016 -0.0339,-0.19756 0,-0.10724 0.0847,-0.2032 0.0847,-0.096 0.27658,-0.096 0.14111,0 0.24271,0.0677 0.10724,0.0621 0.19191,0.18062 0.22013,-0.11289 0.32173,-0.28222 0.1016,-0.16933 0.1016,-0.38946 0,-0.12983 -0.0282,-0.254 -0.0282,-0.12983 -0.0677,-0.21449 h -1.34902 v -0.40076 h 2.39324 v 0.40076 h -0.58702 q 0.0903,0.19755 0.0903,0.52493 0,0.31044 -0.12418,0.52493 -0.12418,0.21449 -0.33867,0.36689 -0.21448,0.14676 -0.49106,0.25965 0.254,0.29351 0.58702,0.6096 0.33867,0.31044 0.69991,0.58702 z"
           id="path141" />
      </g>
      <g
         aria-label="कुंभ"
         transform="rotate(47.941767)"
         id="text4906"
         style="font-size:5.64444px;line-height:1.25;font-family:'Kruti Dev 010';-inkscape-font-specification:'Kruti Dev 010, ';letter-spacing:0px;word-spacing:0px;stroke-width:0.264583">
        <path
           d="m 212.6733,9.325879 h -1.83445 v 1.140177 q 0.27094,-0.282222 0.6604,-0.282222 0.36689,0 0.59831,0.237066 0.23143,0.231422 0.23143,0.666044 0,0.259645 -0.0847,0.553155 -0.0847,0.293511 -0.28222,0.575733 l -0.4064,-0.231422 q 0.14111,-0.180622 0.23142,-0.417688 0.0903,-0.237067 0.0903,-0.468489 0,-0.265288 -0.11289,-0.395111 -0.10724,-0.129822 -0.3048,-0.129822 -0.3048,0 -0.62089,0.4064 v 1.456266 h -0.4572 v -0.982133 q -0.13546,0.112889 -0.33866,0.214489 -0.19756,0.1016 -0.47978,0.1016 -0.26529,0 -0.50235,-0.107245 -0.23143,-0.107244 -0.37254,-0.321733 -0.14111,-0.220133 -0.14111,-0.541866 0,-0.451555 0.31045,-0.716844 0.31044,-0.2652887 0.80715,-0.2652887 0.12982,0 0.28787,0.022578 0.16369,0.016933 0.24835,0.033867 l -0.0339,0.4120447 q -0.0903,-0.02258 -0.23143,-0.03951 -0.13546,-0.01693 -0.24271,-0.01693 -0.32737,0 -0.508,0.146756 -0.18062,0.146755 -0.18062,0.412044 0,0.299155 0.16933,0.445911 0.17498,0.141111 0.40076,0.141111 0.24835,0 0.44027,-0.118533 0.19755,-0.118534 0.36688,-0.287867 V 9.325879 h -2.09408 V 8.9251237 h 4.38573 z"
           id="path144" />
        <path
           d="m 209.94139,12.503699 q 0.3048,-0.129822 0.63218,-0.129822 0.42333,0 0.6604,0.214488 0.23142,0.220134 0.23142,0.575733 0,0.344311 -0.25965,0.564444 -0.26528,0.220134 -0.75071,0.220134 -0.54751,0 -0.94262,-0.259645 -0.40075,-0.259644 -0.73942,-0.688621 l 0.34431,-0.242711 q 0.22013,0.270933 0.41769,0.44591 0.19756,0.174978 0.42333,0.254 0.22014,0.08467 0.49671,0.08467 0.59831,0 0.59831,-0.417689 0,-0.186266 -0.13546,-0.276577 -0.14111,-0.09031 -0.31609,-0.09031 -0.1524,0 -0.27093,0.02822 -0.12418,0.03387 -0.24271,0.09596 z"
           id="path146" />
        <path
           d="m 210.29699,8.0784577 q 0,-0.1354665 0.096,-0.231422 0.0903,-0.095956 0.21448,-0.095956 0.12983,0 0.22014,0.095956 0.0903,0.095955 0.0903,0.231422 0,0.1354666 -0.0903,0.2314221 -0.0903,0.095956 -0.22014,0.095956 -0.12417,0 -0.21448,-0.095956 -0.096,-0.095955 -0.096,-0.2314221 z"
           id="path148" />
        <path
           d="m 213.57076,8.8686793 q 0.20884,0 0.37253,0.062089 0.16369,0.056444 0.28787,0.1975554 0.1016,0.1072444 0.16369,0.2991553 0.0677,0.191911 0.0677,0.5418663 V 10.6241 h 1.13453 V 9.325879 h -0.73942 V 8.9251237 h 1.778 V 9.325879 h -0.58138 v 3.110087 h -0.4572 v -1.411111 h -1.13453 V 11.2337 q 0,0.186266 -0.0847,0.270933 -0.079,0.07902 -0.19191,0.07902 -0.10724,0 -0.22578,-0.06773 -0.11853,-0.07338 -0.22013,-0.180622 -0.1016,-0.112889 -0.16369,-0.237067 -0.0621,-0.124177 -0.0621,-0.231422 0,-0.1016 0.0734,-0.169333 0.079,-0.07338 0.26529,-0.07338 h 0.16369 v -0.592666 q 0,-0.2652887 -0.0282,-0.4063997 -0.0282,-0.141111 -0.0903,-0.2257776 -0.11289,-0.1693332 -0.3556,-0.1693332 -0.1524,0 -0.23143,0.073378 -0.079,0.073378 -0.079,0.191911 0,0.1580443 0.12982,0.2427109 0.13547,0.084667 0.4572,0.1016 l -0.0452,0.4007546 q -0.42334,-0.03387 -0.67733,-0.2032 -0.24836,-0.1749769 -0.24836,-0.5362211 0,-0.3330219 0.21449,-0.4797774 0.21449,-0.1523999 0.508,-0.1523999 z"
           id="path150" />
      </g>
      <g
         aria-label="मीन"
         transform="rotate(76.953952)"
         id="text4914"
         style="font-size:5.64444px;line-height:1.25;font-family:'Kruti Dev 010';-inkscape-font-specification:'Kruti Dev 010, ';letter-spacing:0px;word-spacing:0px;stroke-width:0.264583">
        <path
           d="m 228.7936,-105.78469 v 3.11008 h -0.4572 v -1.41111 h -1.24742 v 0.20885 q 0,0.18626 -0.0847,0.27093 -0.079,0.079 -0.18627,0.079 -0.10724,0 -0.22577,-0.0677 -0.11854,-0.0734 -0.22014,-0.18062 -0.1016,-0.11289 -0.16933,-0.23707 -0.0621,-0.12418 -0.0621,-0.23142 0,-0.1016 0.0734,-0.16933 0.079,-0.0734 0.27093,-0.0734 h 0.14676 v -1.29822 h -0.7112 v -0.40076 h 3.4544 v 0.40076 z m -0.4572,0 h -1.24742 v 1.29822 h 1.24742 z"
           id="path153" />
        <path
           d="m 228.25173,-106.14594 q -0.096,-0.19755 -0.14676,-0.37817 -0.0508,-0.18063 -0.0508,-0.37254 0,-0.36689 0.23707,-0.59831 0.23707,-0.23706 0.6604,-0.23706 0.33867,0 0.56444,0.16368 0.22578,0.15805 0.38947,0.50236 0.16369,0.33867 0.31044,0.88053 h 0.62089 v 0.40076 h -0.58137 v 3.11008 h -0.4572 v -3.11008 h -0.50236 v -0.40076 h 0.49107 q -0.15805,-0.58702 -0.33302,-0.8636 -0.16934,-0.28222 -0.47978,-0.28222 -0.22578,0 -0.34431,0.14111 -0.11854,0.13547 -0.11854,0.37818 0,0.19191 0.0565,0.34995 0.0564,0.1524 0.13546,0.31609 z"
           id="path155" />
        <path
           d="m 230.75785,-106.18545 h 3.21169 v 0.40076 h -0.58138 v 3.11008 h -0.4572 v -1.68204 h -1.02164 v 0.3048 q 0,0.15804 -0.079,0.23707 -0.079,0.079 -0.20885,0.079 -0.13546,0 -0.28786,-0.11853 -0.1524,-0.11854 -0.25965,-0.28787 -0.10724,-0.16933 -0.10724,-0.32738 0,-0.12982 0.0734,-0.20884 0.079,-0.079 0.27093,-0.079 h 1.61995 v -1.02729 h -2.17311 z"
           id="path157" />
      </g>
      <g
         aria-label="मेष"
         transform="rotate(107.6686)"
         id="text54"
         style="font-size:6.25967px;line-height:1.25;stroke-width:0.156492">
        <path
           d="m 180.54529,-218.75766 v 3.44908 h -0.50704 v -1.56492 h -1.38338 v 0.23161 q 0,0.20657 -0.0939,0.30047 -0.0876,0.0876 -0.20657,0.0876 -0.11893,0 -0.25038,-0.0751 -0.13146,-0.0814 -0.24413,-0.20031 -0.11267,-0.1252 -0.18779,-0.26291 -0.0689,-0.13771 -0.0689,-0.25665 0,-0.11267 0.0814,-0.18779 0.0876,-0.0814 0.30046,-0.0814 h 0.16275 v -1.43973 h -0.78871 v -0.44443 h 3.83091 v 0.44443 z m -0.50704,0 h -1.38338 v 1.43973 h 1.38338 z"
           id="path160" />
        <path
           d="m 180.04451,-219.15828 q -0.13145,-0.49451 -0.25665,-0.77619 -0.13145,-0.28795 -0.28794,-0.40688 -0.15649,-0.11894 -0.36932,-0.11894 -0.13771,0 -0.24413,0.0313 -0.10641,0.025 -0.19405,0.0563 l -0.15023,-0.45696 q 0.24413,-0.0876 0.56963,-0.0876 0.33802,0 0.58841,0.16275 0.24413,0.15649 0.44444,0.54459 0.19405,0.38184 0.36932,1.05162 z"
           id="path162" />
        <path
           d="m 184.81438,-219.20209 v 0.44443 h -0.65101 v 3.44908 h -0.50703 v -1.1956 q -0.18779,0.10642 -0.4194,0.19405 -0.2316,0.0876 -0.54459,0.0876 -0.25039,0 -0.45695,-0.0814 -0.20031,-0.0876 -0.33177,-0.21908 -0.15649,-0.16902 -0.2316,-0.39436 -0.0751,-0.23161 -0.0751,-0.63223 v -1.20812 h -0.49451 v -0.44443 z m -1.15804,0.44443 h -1.27071 l 1.27071,1.65256 z m -1.37087,1.94676 q 0.14398,0.14397 0.45696,0.14397 0.16275,0 0.31924,-0.0501 0.15649,-0.0501 0.29421,-0.1252 l -1.2582,-1.64003 v 0.86383 q 0,0.25665 0.0188,0.40688 0.0188,0.15023 0.0563,0.24413 0.0438,0.0876 0.11267,0.15649 z"
           id="path164" />
      </g>
      <path
         style="fill:#7137c8;stroke-width:0.576222"
         d="m 78.210181,119.4677 c -1.000279,-1.00028 -0.895746,-1.52921 0.669965,-3.38995 1.374819,-1.63388 1.380867,-1.63506 2.429833,-0.47597 0.95755,1.05808 0.974232,1.2998 0.186555,2.70314 -0.983658,1.75251 -2.248936,2.20019 -3.286353,1.16278 z"
         id="path1053"
         transform="matrix(0.26458333,0,0,0.26458333,0,138.24998)" />
      <path
         style="fill:#7137c8;stroke-width:0.203725"
         d="m 99.245848,95.242019 c -0.592814,-0.520497 -0.744646,-0.800373 -0.744646,-1.372626 0,-0.850694 0.5921,-1.883312 1.491516,-2.601194 l 0.647602,-0.516892 -0.71304,-0.679471 c -0.392172,-0.373709 -0.816875,-0.853136 -0.943787,-1.065392 -0.254046,-0.424887 -0.811693,-0.407936 -1.313234,0.03992 -0.608618,0.54347 -0.67061,0.286413 -0.07967,-0.330389 0.325428,-0.339675 0.698311,-0.591785 0.828627,-0.560245 0.130316,0.03154 1.215113,0.912154 2.410664,1.95692 l 2.17372,1.899575 -0.13853,0.95258 c -0.24794,1.704855 -0.95158,2.618965 -2.16787,2.816343 -0.59328,0.09628 -0.82621,0.0098 -1.451347,-0.539126 z"
         id="path1170"
         transform="matrix(0.26458333,0,0,0.26458333,0,138.24998)" />
      <path
         style="fill:#7137c8;stroke-width:0.203725"
         d="m 86.814469,102.96837 c -0.701708,-0.55196 -0.717223,-1.4531 -0.03673,-2.13359 1.013931,-1.013928 2.310836,-0.29158 2.500694,1.39285 0.09173,0.81383 0.05548,0.91193 -0.380114,1.02853 -0.870778,0.23308 -1.538981,0.1408 -2.083846,-0.28779 z"
         id="path1209"
         transform="matrix(0.26458333,0,0,0.26458333,0,138.24998)" />
      <path
         style="fill:#7137c8;stroke-width:0.576222"
         d="m 53.451546,157.41924 c -6.730787,-3.86387 -12.240912,-7.25061 -12.244724,-7.52607 -0.01949,-1.40863 12.259439,-20.04533 19.706813,-29.91061 2.817684,-3.73248 7.119307,-9.14168 9.559162,-12.02044 2.439855,-2.87876 4.873643,-5.78693 5.408418,-6.46259 0.946288,-1.1956 0.963869,-1.16549 0.656722,1.12446 -0.271606,2.02497 -0.11481,2.51088 1.124881,3.48602 l 1.440478,1.13309 -4.245287,4.86501 c -2.334908,2.67575 -4.251023,5.03175 -4.258033,5.23553 -0.007,0.20379 0.366478,0.51604 0.829977,0.6939 0.533352,0.20467 1.78169,-0.75 3.400467,-2.6005 1.40676,-1.60814 2.825745,-2.75825 3.1533,-2.55582 0.361711,0.22356 0.06692,0.93848 -0.750761,1.82078 -2.598476,2.8038 -2.329082,6.07171 0.592084,7.18233 1.940174,0.73766 4.052852,-0.17726 5.355471,-2.31925 0.958332,-1.57585 1.149321,-1.6621 1.839384,-0.83062 0.423508,0.51029 0.809786,1.46765 0.858394,2.12745 0.08736,1.18577 2.178472,3.31399 3.256211,3.31399 0.942069,0 4.034188,-3.41902 3.780685,-4.18038 -0.41559,-1.24818 -1.851772,-1.08625 -2.44937,0.27616 -0.81068,1.8482 -2.303809,1.69508 -2.303809,-0.23625 0,-1.2146 -0.964397,-2.38086 -4.483212,-5.42165 -2.465766,-2.13079 -4.395083,-4.13855 -4.287371,-4.46169 0.107713,-0.32314 0.609933,-0.84873 1.116046,-1.16797 0.727924,-0.45916 1.760313,0.16436 4.940714,2.98399 4.195482,3.71958 4.974931,4.10804 5.49956,2.74089 0.277163,-0.72228 -1.093437,-2.08999 -7.918505,-7.9018 -0.307639,-0.26197 -0.253967,-0.7695 0.130345,-1.23257 1.096228,-1.32087 -0.418607,-2.36938 -1.720702,-1.191 -0.842855,0.76277 -1.196215,0.80158 -1.909401,0.20969 -1.420794,-1.17916 -1.026437,-2.36645 1.63211,-4.913786 2.848253,-2.729104 6.976511,-4.230314 7.546743,-2.744315 0.192016,0.500389 0.70704,0.70847 1.243766,0.502509 0.536918,-0.206035 1.600044,0.224028 2.56872,1.039115 l 1.652674,1.390632 -1.345243,0.881445 c -1.264201,0.82833 -1.383349,0.7978 -1.977759,-0.50679 -0.939863,-2.062773 -3.290597,-2.443463 -5.025276,-0.813817 -2.434437,2.287037 -1.614045,5.732257 1.364991,5.732257 1.222314,0 1.359502,0.21265 1.132958,1.75619 -0.222447,1.51563 -0.09327,1.73269 0.942988,1.58461 0.852974,-0.12189 1.284188,-0.70381 1.488854,-2.0092 0.205415,-1.31016 0.958384,-2.32126 2.623306,-3.5226 l 2.335195,-1.68499 1.554306,1.23936 c 1.728428,1.3782 1.982432,2.71642 0.71521,3.76812 -1.121227,0.93054 -2.042016,0.27508 -2.042016,-1.45361 0,-0.98767 -0.319536,-1.40655 -1.07296,-1.40655 -0.863997,0 -1.180151,0.6656 -1.623358,3.41767 -0.488323,3.0322 -0.437905,3.44708 0.447037,3.6785 0.643423,0.16826 1.102982,-0.14277 1.294812,-0.87633 0.222022,-0.84902 0.600704,-1.04089 1.494426,-0.75724 0.868438,0.27563 1.649924,-0.0729 2.846749,-1.26977 0.907334,-0.90733 1.903744,-1.56502 2.214234,-1.46151 0.3105,0.10349 0.86319,-0.17168 1.2282,-0.61149 0.53413,-0.64358 -0.40445,-1.72571 -4.808571,-5.544 -6.103037,-5.29121 -5.949428,-4.530746 -1.871198,-9.26361 1.44988,-1.682615 2.357449,-2.322556 2.744688,-1.93532 0.387233,0.387236 0.09967,1.028408 -0.869652,1.93904 -0.956215,0.898319 -1.448185,1.981168 -1.448185,3.187528 0,4.047568 4.894088,5.113404 7.265128,1.582206 1.07241,-1.597141 1.35324,-1.741503 1.96168,-1.008389 0.39054,0.470581 1.05198,0.855602 1.46985,0.855602 1.72453,0 1.37432,-1.35688 -0.88967,-3.446986 -2.12512,-1.961895 -2.32938,-2.36618 -1.74614,-3.45598 0.82272,-1.537266 1.68826,-1.281018 3.19869,0.946989 0.80308,1.184604 1.48465,1.625785 2.1507,1.392144 0.89145,-0.312701 0.89968,-0.489942 0.096,-2.066712 -1.78486,-3.501675 -5.09307,-4.299315 -6.99614,-1.686827 -1.06822,1.466431 -1.0853,1.469171 -2.1087,0.338324 -1.000643,-1.10569 -0.969601,-1.208887 1.02888,-3.420967 2.19145,-2.425677 2.50126,-3.289384 1.33976,-3.735093 -0.40689,-0.156141 -3.355868,2.815788 -6.77061,6.823315 -5.537082,6.498298 -6.220633,7.104603 -8.06651,7.154938 -1.109228,0.03025 -3.044052,0.420881 -4.299609,0.868076 -1.255557,0.447194 -2.420153,0.675759 -2.587992,0.50792 -0.447153,-0.447153 15.395596,-15.733832 23.055771,-22.246527 13.16498,-11.192894 31.5575,-24.451859 42.11142,-30.357658 l 3.25038,-1.818852 7.26568,12.44463 c 3.99613,6.844547 7.26569,12.528372 7.26569,12.630722 0,0.10235 -1.87992,1.29695 -4.17761,2.654666 -6.48036,3.829287 -15.53053,9.997782 -23.4566,15.987764 -25.79158,19.491527 -49.480717,45.501167 -66.099228,72.574067 -2.383121,3.8823 -4.502988,7.04365 -4.710815,7.02522 -0.207827,-0.0184 -5.884875,-3.19485 -12.615661,-7.05872 z"
         id="path124"
         transform="matrix(0.26458333,0,0,0.26458333,0,138.24998)" />
    </g>
  </g>
</svg>
